<svg width="79" height="50" viewBox="0 0 79 50" fill="none" xmlns="http://www.w3.org/2000/svg">
<path d="M31.8911 6.0784C31.8242 6.3141 31.78 6.51559 31.7511 6.66943L31.6732 20.8334C31.6731 20.8335 31.6731 20.8336 31.6731 20.8336C31.6609 21.0482 31.6529 21.3533 31.669 21.7203C31.7012 22.4526 31.83 23.4401 32.2202 24.4482C32.6112 25.4584 33.2665 26.4929 34.3512 27.3065C35.4367 28.1206 36.9328 28.6988 38.9813 28.8269C43.0858 29.0834 45.6718 27.4108 47.2242 25.6642C47.997 24.7949 48.5113 23.9106 48.8328 23.2436C48.9459 23.0089 49.0354 22.8005 49.104 22.6286C49.2173 22.7587 49.3584 22.914 49.5268 23.0878C50.0304 23.6074 50.7804 24.2934 51.7692 24.9633C53.7482 26.3039 56.6883 27.5822 60.52 27.3268C64.3589 27.0708 66.6822 25.402 68.0422 23.7829C68.7196 22.9765 69.1551 22.1862 69.4218 21.5963C69.5552 21.3012 69.6467 21.0555 69.7052 20.8821C69.7109 20.8651 69.7163 20.8489 69.7214 20.8333C69.7646 20.8337 69.8132 20.8337 69.8668 20.8333C70.1058 20.8313 70.445 20.8192 70.8499 20.7791C71.6576 20.6991 72.7366 20.5067 73.8047 20.0536C74.8739 19.6 75.9425 18.8805 76.7097 17.742C77.4788 16.6007 77.9279 15.064 77.7994 13.0087C77.6714 10.9607 77.0929 9.52085 76.2705 8.52402C75.4481 7.52715 74.4029 6.99901 73.3875 6.73695C72.3749 6.47564 71.385 6.47677 70.6534 6.54109C70.2865 6.57335 69.9816 6.62176 69.7674 6.66237C69.753 6.6651 69.739 6.66779 69.7255 6.67043C69.6796 6.49826 69.6074 6.26156 69.4984 5.9812C69.2705 5.39532 68.8805 4.6154 68.2305 3.83538C66.9219 2.26509 64.5865 0.727435 60.5 0.727435C56.4189 0.727435 53.4797 2.25947 51.5626 3.79317C50.605 4.55922 49.9024 5.32556 49.4382 5.90174C49.2628 6.11951 49.1213 6.31034 49.0128 6.46403C48.9069 6.2966 48.7677 6.08607 48.5957 5.84525C48.1573 5.23155 47.5036 4.41817 46.6413 3.61981C44.9183 2.02444 42.3399 0.469636 38.977 0.728318C35.6284 0.985899 33.7965 2.54026 32.8112 4.05105C32.3222 4.80084 32.0456 5.5333 31.8911 6.0784Z" fill="url(#paint0_radial)" fill-opacity="0.5"/>
<path d="M31.8911 6.0784C31.8242 6.3141 31.78 6.51559 31.7511 6.66943L31.6732 20.8334C31.6731 20.8335 31.6731 20.8336 31.6731 20.8336C31.6609 21.0482 31.6529 21.3533 31.669 21.7203C31.7012 22.4526 31.83 23.4401 32.2202 24.4482C32.6112 25.4584 33.2665 26.4929 34.3512 27.3065C35.4367 28.1206 36.9328 28.6988 38.9813 28.8269C43.0858 29.0834 45.6718 27.4108 47.2242 25.6642C47.997 24.7949 48.5113 23.9106 48.8328 23.2436C48.9459 23.0089 49.0354 22.8005 49.104 22.6286C49.2173 22.7587 49.3584 22.914 49.5268 23.0878C50.0304 23.6074 50.7804 24.2934 51.7692 24.9633C53.7482 26.3039 56.6883 27.5822 60.52 27.3268C64.3589 27.0708 66.6822 25.402 68.0422 23.7829C68.7196 22.9765 69.1551 22.1862 69.4218 21.5963C69.5552 21.3012 69.6467 21.0555 69.7052 20.8821C69.7109 20.8651 69.7163 20.8489 69.7214 20.8333C69.7646 20.8337 69.8132 20.8337 69.8668 20.8333C70.1058 20.8313 70.445 20.8192 70.8499 20.7791C71.6576 20.6991 72.7366 20.5067 73.8047 20.0536C74.8739 19.6 75.9425 18.8805 76.7097 17.742C77.4788 16.6007 77.9279 15.064 77.7994 13.0087C77.6714 10.9607 77.0929 9.52085 76.2705 8.52402C75.4481 7.52715 74.4029 6.99901 73.3875 6.73695C72.3749 6.47564 71.385 6.47677 70.6534 6.54109C70.2865 6.57335 69.9816 6.62176 69.7674 6.66237C69.753 6.6651 69.739 6.66779 69.7255 6.67043C69.6796 6.49826 69.6074 6.26156 69.4984 5.9812C69.2705 5.39532 68.8805 4.6154 68.2305 3.83538C66.9219 2.26509 64.5865 0.727435 60.5 0.727435C56.4189 0.727435 53.4797 2.25947 51.5626 3.79317C50.605 4.55922 49.9024 5.32556 49.4382 5.90174C49.2628 6.11951 49.1213 6.31034 49.0128 6.46403C48.9069 6.2966 48.7677 6.08607 48.5957 5.84525C48.1573 5.23155 47.5036 4.41817 46.6413 3.61981C44.9183 2.02444 42.3399 0.469636 38.977 0.728318C35.6284 0.985899 33.7965 2.54026 32.8112 4.05105C32.3222 4.80084 32.0456 5.5333 31.8911 6.0784Z" fill="url(#paint1_linear)"/>
<path d="M31.8911 6.0784C31.8242 6.3141 31.78 6.51559 31.7511 6.66943L31.6732 20.8334C31.6731 20.8335 31.6731 20.8336 31.6731 20.8336C31.6609 21.0482 31.6529 21.3533 31.669 21.7203C31.7012 22.4526 31.83 23.4401 32.2202 24.4482C32.6112 25.4584 33.2665 26.4929 34.3512 27.3065C35.4367 28.1206 36.9328 28.6988 38.9813 28.8269C43.0858 29.0834 45.6718 27.4108 47.2242 25.6642C47.997 24.7949 48.5113 23.9106 48.8328 23.2436C48.9459 23.0089 49.0354 22.8005 49.104 22.6286C49.2173 22.7587 49.3584 22.914 49.5268 23.0878C50.0304 23.6074 50.7804 24.2934 51.7692 24.9633C53.7482 26.3039 56.6883 27.5822 60.52 27.3268C64.3589 27.0708 66.6822 25.402 68.0422 23.7829C68.7196 22.9765 69.1551 22.1862 69.4218 21.5963C69.5552 21.3012 69.6467 21.0555 69.7052 20.8821C69.7109 20.8651 69.7163 20.8489 69.7214 20.8333C69.7646 20.8337 69.8132 20.8337 69.8668 20.8333C70.1058 20.8313 70.445 20.8192 70.8499 20.7791C71.6576 20.6991 72.7366 20.5067 73.8047 20.0536C74.8739 19.6 75.9425 18.8805 76.7097 17.742C77.4788 16.6007 77.9279 15.064 77.7994 13.0087C77.6714 10.9607 77.0929 9.52085 76.2705 8.52402C75.4481 7.52715 74.4029 6.99901 73.3875 6.73695C72.3749 6.47564 71.385 6.47677 70.6534 6.54109C70.2865 6.57335 69.9816 6.62176 69.7674 6.66237C69.753 6.6651 69.739 6.66779 69.7255 6.67043C69.6796 6.49826 69.6074 6.26156 69.4984 5.9812C69.2705 5.39532 68.8805 4.6154 68.2305 3.83538C66.9219 2.26509 64.5865 0.727435 60.5 0.727435C56.4189 0.727435 53.4797 2.25947 51.5626 3.79317C50.605 4.55922 49.9024 5.32556 49.4382 5.90174C49.2628 6.11951 49.1213 6.31034 49.0128 6.46403C48.9069 6.2966 48.7677 6.08607 48.5957 5.84525C48.1573 5.23155 47.5036 4.41817 46.6413 3.61981C44.9183 2.02444 42.3399 0.469636 38.977 0.728318C35.6284 0.985899 33.7965 2.54026 32.8112 4.05105C32.3222 4.80084 32.0456 5.5333 31.8911 6.0784Z" stroke="#FFF3E9" stroke-width="0.6"/>
<path d="M8.89107 12.0784C8.82423 12.3141 8.77996 12.5156 8.75115 12.6694L8.67315 26.8334C8.67315 26.8335 8.67314 26.8336 8.67314 26.8336C8.66094 27.0482 8.65291 27.3533 8.66904 27.7203C8.70123 28.4526 8.83 29.4401 9.22023 30.4482C9.61125 31.4584 10.2665 32.4929 11.3512 33.3065C12.4367 34.1206 13.9328 34.6988 15.9813 34.8269C20.0858 35.0834 22.6718 33.4108 24.2242 31.6642C24.997 30.7949 25.5113 29.9106 25.8328 29.2436C25.9459 29.0089 26.0354 28.8005 26.104 28.6286C26.2173 28.7587 26.3584 28.914 26.5268 29.0878C27.0304 29.6074 27.7804 30.2934 28.7692 30.9633C30.7482 32.3039 33.6883 33.5822 37.52 33.3268C41.3589 33.0708 43.6822 31.402 45.0422 29.7829C45.7196 28.9765 46.1551 28.1862 46.4218 27.5963C46.5552 27.3012 46.6467 27.0555 46.7052 26.8821C46.7109 26.8651 46.7163 26.8489 46.7214 26.8333C46.7646 26.8337 46.8132 26.8337 46.8668 26.8333C47.1058 26.8313 47.445 26.8192 47.8499 26.7791C48.6576 26.6991 49.7366 26.5067 50.8047 26.0536C51.8739 25.6 52.9425 24.8805 53.7097 23.742C54.4788 22.6007 54.9279 21.064 54.7994 19.0087C54.6714 16.9607 54.0929 15.5209 53.2705 14.524C52.4481 13.5272 51.4029 12.999 50.3875 12.737C49.3749 12.4756 48.385 12.4768 47.6534 12.5411C47.2865 12.5733 46.9816 12.6218 46.7674 12.6624C46.753 12.6651 46.739 12.6678 46.7255 12.6704C46.6796 12.4983 46.6074 12.2616 46.4984 11.9812C46.2705 11.3953 45.8805 10.6154 45.2305 9.83538C43.9219 8.26509 41.5865 6.72743 37.5 6.72743C33.4189 6.72743 30.4797 8.25947 28.5626 9.79317C27.605 10.5592 26.9024 11.3256 26.4382 11.9017C26.2628 12.1195 26.1213 12.3103 26.0128 12.464C25.9069 12.2966 25.7677 12.0861 25.5957 11.8453C25.1573 11.2315 24.5036 10.4182 23.6413 9.61981C21.9183 8.02444 19.3399 6.46964 15.977 6.72832C12.6284 6.9859 10.7965 8.54026 9.81122 10.0511C9.32223 10.8008 9.04565 11.5333 8.89107 12.0784Z" fill="url(#paint2_radial)" fill-opacity="0.5"/>
<path d="M8.89107 12.0784C8.82423 12.3141 8.77996 12.5156 8.75115 12.6694L8.67315 26.8334C8.67315 26.8335 8.67314 26.8336 8.67314 26.8336C8.66094 27.0482 8.65291 27.3533 8.66904 27.7203C8.70123 28.4526 8.83 29.4401 9.22023 30.4482C9.61125 31.4584 10.2665 32.4929 11.3512 33.3065C12.4367 34.1206 13.9328 34.6988 15.9813 34.8269C20.0858 35.0834 22.6718 33.4108 24.2242 31.6642C24.997 30.7949 25.5113 29.9106 25.8328 29.2436C25.9459 29.0089 26.0354 28.8005 26.104 28.6286C26.2173 28.7587 26.3584 28.914 26.5268 29.0878C27.0304 29.6074 27.7804 30.2934 28.7692 30.9633C30.7482 32.3039 33.6883 33.5822 37.52 33.3268C41.3589 33.0708 43.6822 31.402 45.0422 29.7829C45.7196 28.9765 46.1551 28.1862 46.4218 27.5963C46.5552 27.3012 46.6467 27.0555 46.7052 26.8821C46.7109 26.8651 46.7163 26.8489 46.7214 26.8333C46.7646 26.8337 46.8132 26.8337 46.8668 26.8333C47.1058 26.8313 47.445 26.8192 47.8499 26.7791C48.6576 26.6991 49.7366 26.5067 50.8047 26.0536C51.8739 25.6 52.9425 24.8805 53.7097 23.742C54.4788 22.6007 54.9279 21.064 54.7994 19.0087C54.6714 16.9607 54.0929 15.5209 53.2705 14.524C52.4481 13.5272 51.4029 12.999 50.3875 12.737C49.3749 12.4756 48.385 12.4768 47.6534 12.5411C47.2865 12.5733 46.9816 12.6218 46.7674 12.6624C46.753 12.6651 46.739 12.6678 46.7255 12.6704C46.6796 12.4983 46.6074 12.2616 46.4984 11.9812C46.2705 11.3953 45.8805 10.6154 45.2305 9.83538C43.9219 8.26509 41.5865 6.72743 37.5 6.72743C33.4189 6.72743 30.4797 8.25947 28.5626 9.79317C27.605 10.5592 26.9024 11.3256 26.4382 11.9017C26.2628 12.1195 26.1213 12.3103 26.0128 12.464C25.9069 12.2966 25.7677 12.0861 25.5957 11.8453C25.1573 11.2315 24.5036 10.4182 23.6413 9.61981C21.9183 8.02444 19.3399 6.46964 15.977 6.72832C12.6284 6.9859 10.7965 8.54026 9.81122 10.0511C9.32223 10.8008 9.04565 11.5333 8.89107 12.0784Z" fill="url(#paint3_linear)"/>
<path d="M8.89107 12.0784C8.82423 12.3141 8.77996 12.5156 8.75115 12.6694L8.67315 26.8334C8.67315 26.8335 8.67314 26.8336 8.67314 26.8336C8.66094 27.0482 8.65291 27.3533 8.66904 27.7203C8.70123 28.4526 8.83 29.4401 9.22023 30.4482C9.61125 31.4584 10.2665 32.4929 11.3512 33.3065C12.4367 34.1206 13.9328 34.6988 15.9813 34.8269C20.0858 35.0834 22.6718 33.4108 24.2242 31.6642C24.997 30.7949 25.5113 29.9106 25.8328 29.2436C25.9459 29.0089 26.0354 28.8005 26.104 28.6286C26.2173 28.7587 26.3584 28.914 26.5268 29.0878C27.0304 29.6074 27.7804 30.2934 28.7692 30.9633C30.7482 32.3039 33.6883 33.5822 37.52 33.3268C41.3589 33.0708 43.6822 31.402 45.0422 29.7829C45.7196 28.9765 46.1551 28.1862 46.4218 27.5963C46.5552 27.3012 46.6467 27.0555 46.7052 26.8821C46.7109 26.8651 46.7163 26.8489 46.7214 26.8333C46.7646 26.8337 46.8132 26.8337 46.8668 26.8333C47.1058 26.8313 47.445 26.8192 47.8499 26.7791C48.6576 26.6991 49.7366 26.5067 50.8047 26.0536C51.8739 25.6 52.9425 24.8805 53.7097 23.742C54.4788 22.6007 54.9279 21.064 54.7994 19.0087C54.6714 16.9607 54.0929 15.5209 53.2705 14.524C52.4481 13.5272 51.4029 12.999 50.3875 12.737C49.3749 12.4756 48.385 12.4768 47.6534 12.5411C47.2865 12.5733 46.9816 12.6218 46.7674 12.6624C46.753 12.6651 46.739 12.6678 46.7255 12.6704C46.6796 12.4983 46.6074 12.2616 46.4984 11.9812C46.2705 11.3953 45.8805 10.6154 45.2305 9.83538C43.9219 8.26509 41.5865 6.72743 37.5 6.72743C33.4189 6.72743 30.4797 8.25947 28.5626 9.79317C27.605 10.5592 26.9024 11.3256 26.4382 11.9017C26.2628 12.1195 26.1213 12.3103 26.0128 12.464C25.9069 12.2966 25.7677 12.0861 25.5957 11.8453C25.1573 11.2315 24.5036 10.4182 23.6413 9.61981C21.9183 8.02444 19.3399 6.46964 15.977 6.72832C12.6284 6.9859 10.7965 8.54026 9.81122 10.0511C9.32223 10.8008 9.04565 11.5333 8.89107 12.0784Z" stroke="#FFF3E9" stroke-width="0.6"/>
<path d="M31.8911 26.0784C31.8242 26.3141 31.78 26.5156 31.7511 26.6694L31.6732 40.8334C31.6731 40.8335 31.6731 40.8336 31.6731 40.8336C31.6609 41.0482 31.6529 41.3533 31.669 41.7203C31.7012 42.4526 31.83 43.4401 32.2202 44.4482C32.6112 45.4584 33.2665 46.4929 34.3512 47.3065C35.4367 48.1206 36.9328 48.6988 38.9813 48.8269C43.0858 49.0834 45.6718 47.4108 47.2242 45.6642C47.997 44.7949 48.5113 43.9106 48.8328 43.2436C48.9459 43.0089 49.0354 42.8005 49.104 42.6286C49.2173 42.7587 49.3584 42.914 49.5268 43.0878C50.0304 43.6074 50.7804 44.2934 51.7692 44.9633C53.7482 46.3039 56.6883 47.5822 60.52 47.3268C64.3589 47.0708 66.6822 45.402 68.0422 43.7829C68.7196 42.9765 69.1551 42.1862 69.4218 41.5963C69.5552 41.3012 69.6467 41.0555 69.7052 40.8821C69.7109 40.8651 69.7163 40.8489 69.7214 40.8333C69.7646 40.8337 69.8132 40.8337 69.8668 40.8333C70.1058 40.8313 70.445 40.8192 70.8499 40.7791C71.6576 40.6991 72.7366 40.5067 73.8047 40.0536C74.8739 39.6 75.9425 38.8805 76.7097 37.742C77.4788 36.6007 77.9279 35.064 77.7994 33.0087C77.6714 30.9607 77.0929 29.5209 76.2705 28.524C75.4481 27.5272 74.4029 26.999 73.3875 26.737C72.3749 26.4756 71.385 26.4768 70.6534 26.5411C70.2865 26.5733 69.9816 26.6218 69.7674 26.6624C69.753 26.6651 69.739 26.6678 69.7255 26.6704C69.6796 26.4983 69.6074 26.2616 69.4984 25.9812C69.2705 25.3953 68.8805 24.6154 68.2305 23.8354C66.9219 22.2651 64.5865 20.7274 60.5 20.7274C56.4189 20.7274 53.4797 22.2595 51.5626 23.7932C50.605 24.5592 49.9024 25.3256 49.4382 25.9017C49.2628 26.1195 49.1213 26.3103 49.0128 26.464C48.9069 26.2966 48.7677 26.0861 48.5957 25.8453C48.1573 25.2315 47.5036 24.4182 46.6413 23.6198C44.9183 22.0244 42.3399 20.4696 38.977 20.7283C35.6284 20.9859 33.7965 22.5403 32.8112 24.0511C32.3222 24.8008 32.0456 25.5333 31.8911 26.0784Z" fill="url(#paint4_radial)" fill-opacity="0.5"/>
<path d="M31.8911 26.0784C31.8242 26.3141 31.78 26.5156 31.7511 26.6694L31.6732 40.8334C31.6731 40.8335 31.6731 40.8336 31.6731 40.8336C31.6609 41.0482 31.6529 41.3533 31.669 41.7203C31.7012 42.4526 31.83 43.4401 32.2202 44.4482C32.6112 45.4584 33.2665 46.4929 34.3512 47.3065C35.4367 48.1206 36.9328 48.6988 38.9813 48.8269C43.0858 49.0834 45.6718 47.4108 47.2242 45.6642C47.997 44.7949 48.5113 43.9106 48.8328 43.2436C48.9459 43.0089 49.0354 42.8005 49.104 42.6286C49.2173 42.7587 49.3584 42.914 49.5268 43.0878C50.0304 43.6074 50.7804 44.2934 51.7692 44.9633C53.7482 46.3039 56.6883 47.5822 60.52 47.3268C64.3589 47.0708 66.6822 45.402 68.0422 43.7829C68.7196 42.9765 69.1551 42.1862 69.4218 41.5963C69.5552 41.3012 69.6467 41.0555 69.7052 40.8821C69.7109 40.8651 69.7163 40.8489 69.7214 40.8333C69.7646 40.8337 69.8132 40.8337 69.8668 40.8333C70.1058 40.8313 70.445 40.8192 70.8499 40.7791C71.6576 40.6991 72.7366 40.5067 73.8047 40.0536C74.8739 39.6 75.9425 38.8805 76.7097 37.742C77.4788 36.6007 77.9279 35.064 77.7994 33.0087C77.6714 30.9607 77.0929 29.5209 76.2705 28.524C75.4481 27.5272 74.4029 26.999 73.3875 26.737C72.3749 26.4756 71.385 26.4768 70.6534 26.5411C70.2865 26.5733 69.9816 26.6218 69.7674 26.6624C69.753 26.6651 69.739 26.6678 69.7255 26.6704C69.6796 26.4983 69.6074 26.2616 69.4984 25.9812C69.2705 25.3953 68.8805 24.6154 68.2305 23.8354C66.9219 22.2651 64.5865 20.7274 60.5 20.7274C56.4189 20.7274 53.4797 22.2595 51.5626 23.7932C50.605 24.5592 49.9024 25.3256 49.4382 25.9017C49.2628 26.1195 49.1213 26.3103 49.0128 26.464C48.9069 26.2966 48.7677 26.0861 48.5957 25.8453C48.1573 25.2315 47.5036 24.4182 46.6413 23.6198C44.9183 22.0244 42.3399 20.4696 38.977 20.7283C35.6284 20.9859 33.7965 22.5403 32.8112 24.0511C32.3222 24.8008 32.0456 25.5333 31.8911 26.0784Z" fill="url(#paint5_linear)"/>
<path d="M31.8911 26.0784C31.8242 26.3141 31.78 26.5156 31.7511 26.6694L31.6732 40.8334C31.6731 40.8335 31.6731 40.8336 31.6731 40.8336C31.6609 41.0482 31.6529 41.3533 31.669 41.7203C31.7012 42.4526 31.83 43.4401 32.2202 44.4482C32.6112 45.4584 33.2665 46.4929 34.3512 47.3065C35.4367 48.1206 36.9328 48.6988 38.9813 48.8269C43.0858 49.0834 45.6718 47.4108 47.2242 45.6642C47.997 44.7949 48.5113 43.9106 48.8328 43.2436C48.9459 43.0089 49.0354 42.8005 49.104 42.6286C49.2173 42.7587 49.3584 42.914 49.5268 43.0878C50.0304 43.6074 50.7804 44.2934 51.7692 44.9633C53.7482 46.3039 56.6883 47.5822 60.52 47.3268C64.3589 47.0708 66.6822 45.402 68.0422 43.7829C68.7196 42.9765 69.1551 42.1862 69.4218 41.5963C69.5552 41.3012 69.6467 41.0555 69.7052 40.8821C69.7109 40.8651 69.7163 40.8489 69.7214 40.8333C69.7646 40.8337 69.8132 40.8337 69.8668 40.8333C70.1058 40.8313 70.445 40.8192 70.8499 40.7791C71.6576 40.6991 72.7366 40.5067 73.8047 40.0536C74.8739 39.6 75.9425 38.8805 76.7097 37.742C77.4788 36.6007 77.9279 35.064 77.7994 33.0087C77.6714 30.9607 77.0929 29.5209 76.2705 28.524C75.4481 27.5272 74.4029 26.999 73.3875 26.737C72.3749 26.4756 71.385 26.4768 70.6534 26.5411C70.2865 26.5733 69.9816 26.6218 69.7674 26.6624C69.753 26.6651 69.739 26.6678 69.7255 26.6704C69.6796 26.4983 69.6074 26.2616 69.4984 25.9812C69.2705 25.3953 68.8805 24.6154 68.2305 23.8354C66.9219 22.2651 64.5865 20.7274 60.5 20.7274C56.4189 20.7274 53.4797 22.2595 51.5626 23.7932C50.605 24.5592 49.9024 25.3256 49.4382 25.9017C49.2628 26.1195 49.1213 26.3103 49.0128 26.464C48.9069 26.2966 48.7677 26.0861 48.5957 25.8453C48.1573 25.2315 47.5036 24.4182 46.6413 23.6198C44.9183 22.0244 42.3399 20.4696 38.977 20.7283C35.6284 20.9859 33.7965 22.5403 32.8112 24.0511C32.3222 24.8008 32.0456 25.5333 31.8911 26.0784Z" stroke="#FFF3E9" stroke-width="0.6"/>
<defs>
<radialGradient id="paint0_radial" cx="0" cy="0" r="1" gradientUnits="userSpaceOnUse" gradientTransform="translate(51 -4) rotate(90.4213) scale(32.5539 63.2353)">
<stop stop-color="#FFD644"/>
<stop offset="1" stop-color="#D7A43F" stop-opacity="0.7"/>
</radialGradient>
<linearGradient id="paint1_linear" x1="48.5" y1="29" x2="47" y2="1" gradientUnits="userSpaceOnUse">
<stop stop-color="#DDA534" stop-opacity="0.5"/>
<stop offset="0.630208" stop-color="white" stop-opacity="0.34"/>
<stop offset="1" stop-color="white" stop-opacity="0.99"/>
</linearGradient>
<radialGradient id="paint2_radial" cx="0" cy="0" r="1" gradientUnits="userSpaceOnUse" gradientTransform="translate(28 2) rotate(90.4213) scale(32.5539 63.2353)">
<stop stop-color="#FFD644"/>
<stop offset="1" stop-color="#D7A43F" stop-opacity="0.7"/>
</radialGradient>
<linearGradient id="paint3_linear" x1="25.5" y1="35" x2="24" y2="7" gradientUnits="userSpaceOnUse">
<stop stop-color="#DDA534" stop-opacity="0.5"/>
<stop offset="0.630208" stop-color="white" stop-opacity="0.34"/>
<stop offset="1" stop-color="white" stop-opacity="0.99"/>
</linearGradient>
<radialGradient id="paint4_radial" cx="0" cy="0" r="1" gradientUnits="userSpaceOnUse" gradientTransform="translate(51 16) rotate(90.4213) scale(32.5539 63.2353)">
<stop stop-color="#FFD644"/>
<stop offset="1" stop-color="#D7A43F" stop-opacity="0.7"/>
</radialGradient>
<linearGradient id="paint5_linear" x1="48.5" y1="49" x2="47" y2="21" gradientUnits="userSpaceOnUse">
<stop stop-color="#DDA534" stop-opacity="0.5"/>
<stop offset="0.630208" stop-color="white" stop-opacity="0.34"/>
<stop offset="1" stop-color="white" stop-opacity="0.99"/>
</linearGradient>
</defs>
</svg>
