<svg width="90" height="47" viewBox="0 0 90 47" fill="none" xmlns="http://www.w3.org/2000/svg">
<path d="M41.8533 10.2546C41.8497 10.2598 41.8462 10.265 41.8427 10.2702C41.8352 10.2579 41.8276 10.2454 41.8198 10.2327C41.6395 9.93876 41.3709 9.52134 41.0155 9.02376C40.305 8.02913 39.2456 6.71116 37.8491 5.4181C35.0576 2.83333 30.8961 0.328704 25.4752 0.74569C20.0687 1.16157 17.1287 3.66576 15.5497 6.0868C14.7639 7.29171 14.3192 8.4694 14.0706 9.34595C13.9462 9.78457 13.8706 10.1489 13.826 10.4051C13.8213 10.432 13.817 10.4577 13.8129 10.4822C13.739 10.4675 13.6534 10.4511 13.557 10.4339C13.1922 10.3688 12.6724 10.2908 12.0491 10.2389C10.8051 10.1352 9.13626 10.134 7.4601 10.5531C5.78163 10.9727 4.08369 11.8172 2.80726 13.4127C1.53007 15.0092 0.7 17.3262 0.7 20.6434C0.7 23.9621 1.53054 26.4227 2.79525 28.2407C4.05876 30.057 5.74109 31.2112 7.41262 31.9425C9.08267 32.6731 10.7483 32.9847 11.9931 33.1143C12.6164 33.1793 13.1363 33.1988 13.5016 33.2021C13.5882 33.2029 13.6662 33.2027 13.7348 33.202C13.7303 33.2621 13.7258 33.3294 13.7216 33.4034C13.7019 33.7485 13.689 34.2403 13.715 34.8324C13.767 36.0149 13.9749 37.6059 14.6026 39.2275C15.231 40.851 16.282 42.5089 18.0198 43.8122C19.7582 45.116 22.1646 46.0505 25.4795 46.2577C32.117 46.6725 36.2859 43.9709 38.7882 41.1558C40.0358 39.7522 40.8668 38.3237 41.3861 37.2462C41.6399 36.7196 41.8197 36.2759 41.9376 35.9584C42.1438 36.205 42.4408 36.5433 42.8271 36.9419C43.6424 37.7831 44.8574 38.8946 46.4597 39.98C49.6655 42.1517 54.4262 44.2215 60.6323 43.8078C66.8458 43.3935 70.5939 40.6957 72.785 38.0872C73.8779 36.7861 74.5806 35.511 75.0105 34.56C75.2256 34.0843 75.3727 33.689 75.4664 33.4111C75.4935 33.3307 75.5162 33.2601 75.5347 33.2002C75.6325 33.2021 75.7583 33.2034 75.9088 33.2021C76.2943 33.1988 76.8426 33.1793 77.4972 33.1145C78.8047 32.9851 80.5465 32.6739 82.2676 31.9438C83.9898 31.2131 85.7015 30.0583 86.9288 28.2371C88.158 26.4131 88.8841 23.9464 88.6765 20.6247C88.4693 17.3103 87.5346 14.9997 86.2224 13.4092C84.9103 11.8187 83.2418 10.974 81.6129 10.5536C79.9869 10.134 78.3936 10.1351 77.2117 10.239C76.6197 10.2911 76.1281 10.3692 75.7834 10.4345C75.6917 10.4519 75.6104 10.4684 75.5403 10.4832C75.5301 10.4416 75.5187 10.3961 75.5059 10.347C75.4331 10.0693 75.3149 9.67548 75.1316 9.20423C74.7652 8.26216 74.1378 7.00734 73.092 5.7524C70.9919 3.23228 67.2318 0.744807 60.6124 0.744807C53.9985 0.744807 49.2388 3.22666 46.1343 5.71019C44.5831 6.95115 43.4452 8.1924 42.6941 9.12476C42.3185 9.59107 42.0393 9.98051 41.8533 10.2546Z" fill="url(#paint0_radial)" fill-opacity="0.5"/>
<path d="M41.8533 10.2546C41.8497 10.2598 41.8462 10.265 41.8427 10.2702C41.8352 10.2579 41.8276 10.2454 41.8198 10.2327C41.6395 9.93876 41.3709 9.52134 41.0155 9.02376C40.305 8.02913 39.2456 6.71116 37.8491 5.4181C35.0576 2.83333 30.8961 0.328704 25.4752 0.74569C20.0687 1.16157 17.1287 3.66576 15.5497 6.0868C14.7639 7.29171 14.3192 8.4694 14.0706 9.34595C13.9462 9.78457 13.8706 10.1489 13.826 10.4051C13.8213 10.432 13.817 10.4577 13.8129 10.4822C13.739 10.4675 13.6534 10.4511 13.557 10.4339C13.1922 10.3688 12.6724 10.2908 12.0491 10.2389C10.8051 10.1352 9.13626 10.134 7.4601 10.5531C5.78163 10.9727 4.08369 11.8172 2.80726 13.4127C1.53007 15.0092 0.7 17.3262 0.7 20.6434C0.7 23.9621 1.53054 26.4227 2.79525 28.2407C4.05876 30.057 5.74109 31.2112 7.41262 31.9425C9.08267 32.6731 10.7483 32.9847 11.9931 33.1143C12.6164 33.1793 13.1363 33.1988 13.5016 33.2021C13.5882 33.2029 13.6662 33.2027 13.7348 33.202C13.7303 33.2621 13.7258 33.3294 13.7216 33.4034C13.7019 33.7485 13.689 34.2403 13.715 34.8324C13.767 36.0149 13.9749 37.6059 14.6026 39.2275C15.231 40.851 16.282 42.5089 18.0198 43.8122C19.7582 45.116 22.1646 46.0505 25.4795 46.2577C32.117 46.6725 36.2859 43.9709 38.7882 41.1558C40.0358 39.7522 40.8668 38.3237 41.3861 37.2462C41.6399 36.7196 41.8197 36.2759 41.9376 35.9584C42.1438 36.205 42.4408 36.5433 42.8271 36.9419C43.6424 37.7831 44.8574 38.8946 46.4597 39.98C49.6655 42.1517 54.4262 44.2215 60.6323 43.8078C66.8458 43.3935 70.5939 40.6957 72.785 38.0872C73.8779 36.7861 74.5806 35.511 75.0105 34.56C75.2256 34.0843 75.3727 33.689 75.4664 33.4111C75.4935 33.3307 75.5162 33.2601 75.5347 33.2002C75.6325 33.2021 75.7583 33.2034 75.9088 33.2021C76.2943 33.1988 76.8426 33.1793 77.4972 33.1145C78.8047 32.9851 80.5465 32.6739 82.2676 31.9438C83.9898 31.2131 85.7015 30.0583 86.9288 28.2371C88.158 26.4131 88.8841 23.9464 88.6765 20.6247C88.4693 17.3103 87.5346 14.9997 86.2224 13.4092C84.9103 11.8187 83.2418 10.974 81.6129 10.5536C79.9869 10.134 78.3936 10.1351 77.2117 10.239C76.6197 10.2911 76.1281 10.3692 75.7834 10.4345C75.6917 10.4519 75.6104 10.4684 75.5403 10.4832C75.5301 10.4416 75.5187 10.3961 75.5059 10.347C75.4331 10.0693 75.3149 9.67548 75.1316 9.20423C74.7652 8.26216 74.1378 7.00734 73.092 5.7524C70.9919 3.23228 67.2318 0.744807 60.6124 0.744807C53.9985 0.744807 49.2388 3.22666 46.1343 5.71019C44.5831 6.95115 43.4452 8.1924 42.6941 9.12476C42.3185 9.59107 42.0393 9.98051 41.8533 10.2546Z" fill="url(#paint1_linear)"/>
<path d="M41.8533 10.2546C41.8497 10.2598 41.8462 10.265 41.8427 10.2702C41.8352 10.2579 41.8276 10.2454 41.8198 10.2327C41.6395 9.93876 41.3709 9.52134 41.0155 9.02376C40.305 8.02913 39.2456 6.71116 37.8491 5.4181C35.0576 2.83333 30.8961 0.328704 25.4752 0.74569C20.0687 1.16157 17.1287 3.66576 15.5497 6.0868C14.7639 7.29171 14.3192 8.4694 14.0706 9.34595C13.9462 9.78457 13.8706 10.1489 13.826 10.4051C13.8213 10.432 13.817 10.4577 13.8129 10.4822C13.739 10.4675 13.6534 10.4511 13.557 10.4339C13.1922 10.3688 12.6724 10.2908 12.0491 10.2389C10.8051 10.1352 9.13626 10.134 7.4601 10.5531C5.78163 10.9727 4.08369 11.8172 2.80726 13.4127C1.53007 15.0092 0.7 17.3262 0.7 20.6434C0.7 23.9621 1.53054 26.4227 2.79525 28.2407C4.05876 30.057 5.74109 31.2112 7.41262 31.9425C9.08267 32.6731 10.7483 32.9847 11.9931 33.1143C12.6164 33.1793 13.1363 33.1988 13.5016 33.2021C13.5882 33.2029 13.6662 33.2027 13.7348 33.202C13.7303 33.2621 13.7258 33.3294 13.7216 33.4034C13.7019 33.7485 13.689 34.2403 13.715 34.8324C13.767 36.0149 13.9749 37.6059 14.6026 39.2275C15.231 40.851 16.282 42.5089 18.0198 43.8122C19.7582 45.116 22.1646 46.0505 25.4795 46.2577C32.117 46.6725 36.2859 43.9709 38.7882 41.1558C40.0358 39.7522 40.8668 38.3237 41.3861 37.2462C41.6399 36.7196 41.8197 36.2759 41.9376 35.9584C42.1438 36.205 42.4408 36.5433 42.8271 36.9419C43.6424 37.7831 44.8574 38.8946 46.4597 39.98C49.6655 42.1517 54.4262 44.2215 60.6323 43.8078C66.8458 43.3935 70.5939 40.6957 72.785 38.0872C73.8779 36.7861 74.5806 35.511 75.0105 34.56C75.2256 34.0843 75.3727 33.689 75.4664 33.4111C75.4935 33.3307 75.5162 33.2601 75.5347 33.2002C75.6325 33.2021 75.7583 33.2034 75.9088 33.2021C76.2943 33.1988 76.8426 33.1793 77.4972 33.1145C78.8047 32.9851 80.5465 32.6739 82.2676 31.9438C83.9898 31.2131 85.7015 30.0583 86.9288 28.2371C88.158 26.4131 88.8841 23.9464 88.6765 20.6247C88.4693 17.3103 87.5346 14.9997 86.2224 13.4092C84.9103 11.8187 83.2418 10.974 81.6129 10.5536C79.9869 10.134 78.3936 10.1351 77.2117 10.239C76.6197 10.2911 76.1281 10.3692 75.7834 10.4345C75.6917 10.4519 75.6104 10.4684 75.5403 10.4832C75.5301 10.4416 75.5187 10.3961 75.5059 10.347C75.4331 10.0693 75.3149 9.67548 75.1316 9.20423C74.7652 8.26216 74.1378 7.00734 73.092 5.7524C70.9919 3.23228 67.2318 0.744807 60.6124 0.744807C53.9985 0.744807 49.2388 3.22666 46.1343 5.71019C44.5831 6.95115 43.4452 8.1924 42.6941 9.12476C42.3185 9.59107 42.0393 9.98051 41.8533 10.2546Z" stroke="#FFF3E9" stroke-width="0.6"/>
<defs>
<radialGradient id="paint0_radial" cx="0" cy="0" r="1" gradientUnits="userSpaceOnUse" gradientTransform="translate(45.0968 -7.16608) rotate(90.4213) scale(53.1675 103.277)">
<stop stop-color="#FFD644"/>
<stop offset="1" stop-color="#D7A43F" stop-opacity="0.7"/>
</radialGradient>
<linearGradient id="paint1_linear" x1="41.0138" y1="46.73" x2="38.564" y2="1" gradientUnits="userSpaceOnUse">
<stop stop-color="#DDA534" stop-opacity="0.5"/>
<stop offset="0.630208" stop-color="white" stop-opacity="0.34"/>
<stop offset="1" stop-color="white" stop-opacity="0.99"/>
</linearGradient>
</defs>
</svg>
