<svg width="7356" height="1379" viewBox="0 0 7356 1379" fill="none" xmlns="http://www.w3.org/2000/svg">
<g filter="url(#filter0_f)">
<path d="M4362.7 925.984C4379.23 865.295 5390.97 867.749 5233.33 838.589C5106.08 815.053 4230.84 907.103 4067.91 890.485C3734.62 856.492 5727.74 466.914 4020.82 782.638C3591.83 861.988 2566.47 935.73 2567 941.97C2570.43 981.905 3475.11 923.039 3532.29 957.956C3635.84 1021.18 3629 1115.6 3832.97 1100.36C3961.7 1090.74 3699.02 962.052 3832.97 957.956C4042.24 951.557 4343.36 997.016 4362.7 925.984Z" fill="white"/>
</g>
<g filter="url(#filter1_f)">
<path d="M4335.7 1008.98C4352.23 948.295 5363.97 950.749 5206.33 921.589C5079.08 898.053 4203.84 990.103 4040.91 973.485C3707.62 939.492 5700.74 549.914 3993.82 865.638C3564.83 944.988 2539.46 1018.73 2540 1024.97C2543.43 1064.9 3448.11 1006.04 3505.29 1040.96C3608.84 1104.18 3602 1198.6 3805.97 1183.36C3934.7 1173.74 3672.02 1045.05 3805.97 1040.96C4015.24 1034.56 4316.36 1080.02 4335.7 1008.98Z" fill="url(#paint0_radial)"/>
<path d="M4335.7 1008.98C4352.23 948.295 5363.97 950.749 5206.33 921.589C5079.08 898.053 4203.84 990.103 4040.91 973.485C3707.62 939.492 5700.74 549.914 3993.82 865.638C3564.83 944.988 2539.46 1018.73 2540 1024.97C2543.43 1064.9 3448.11 1006.04 3505.29 1040.96C3608.84 1104.18 3602 1198.6 3805.97 1183.36C3934.7 1173.74 3672.02 1045.05 3805.97 1040.96C4015.24 1034.56 4316.36 1080.02 4335.7 1008.98Z" stroke="black"/>
</g>
<g filter="url(#filter2_f)">
<path d="M4132.94 1068.62C4146.02 1020.56 4947.18 1022.51 4822.34 999.417C4721.59 980.78 4028.52 1053.67 3899.51 1040.51C3635.58 1013.59 5213.85 705.104 3862.22 955.112C3522.52 1017.94 2710.58 1076.34 2711 1081.28C2713.71 1112.9 3430.09 1066.29 3475.37 1093.94C3557.37 1144.01 3551.95 1218.77 3713.46 1206.7C3815.4 1199.08 3607.4 1097.18 3713.46 1093.94C3879.17 1088.87 4117.62 1124.87 4132.94 1068.62Z" fill="url(#paint1_radial)"/>
<path d="M4132.94 1068.62C4146.02 1020.56 4947.18 1022.51 4822.34 999.417C4721.59 980.78 4028.52 1053.67 3899.51 1040.51C3635.58 1013.59 5213.85 705.104 3862.22 955.112C3522.52 1017.94 2710.58 1076.34 2711 1081.28C2713.71 1112.9 3430.09 1066.29 3475.37 1093.94C3557.37 1144.01 3551.95 1218.77 3713.46 1206.7C3815.4 1199.08 3607.4 1097.18 3713.46 1093.94C3879.17 1088.87 4117.62 1124.87 4132.94 1068.62Z" stroke="black"/>
</g>
<g filter="url(#filter3_f)">
<path d="M5820.37 974.873C5750.13 990.166 5251.3 955.486 5205.86 964.031C5094.95 984.886 5050.83 987.654 5038.93 982.152C5030.34 978.186 5029.22 952.67 5029.02 921.221C4989.28 922.095 4978.99 941.375 4969.49 945.113C4931.93 959.882 4854.84 926.375 4862.28 927.315C4870.01 928.292 4958.37 880.691 4862.22 858.953C4766.06 837.215 4964.72 787.518 4993.64 784.779C5031.56 781.187 5028.64 861.795 5029.02 921.221C5146.29 918.641 5366.99 923.585 5446.82 913.476L5548.5 932.535C5513.07 940.692 5876.79 962.591 5820.37 974.873Z" fill="white"/>
<path d="M5820.37 974.873C5750.13 990.166 5251.3 955.486 5205.86 964.031C5094.95 984.886 5050.83 987.654 5038.93 982.152C5030.34 978.186 5029.22 952.67 5029.02 921.221C4989.28 922.095 4978.99 941.375 4969.49 945.113C4931.93 959.882 4854.84 926.375 4862.28 927.315C4870.01 928.292 4958.37 880.691 4862.22 858.953C4766.06 837.215 4964.72 787.518 4993.64 784.779C5031.56 781.187 5028.64 861.795 5029.02 921.221C5146.29 918.641 5366.99 923.585 5446.82 913.476L5548.5 932.535C5513.07 940.692 5876.79 962.591 5820.37 974.873Z" stroke="black"/>
<path d="M5820.37 974.873C5750.13 990.166 5251.3 955.486 5205.86 964.031C5094.95 984.886 5050.83 987.654 5038.93 982.152C5030.34 978.186 5029.22 952.67 5029.02 921.221C4989.28 922.095 4978.99 941.375 4969.49 945.113C4931.93 959.882 4854.84 926.375 4862.28 927.315C4870.01 928.292 4958.37 880.691 4862.22 858.953C4766.06 837.215 4964.72 787.518 4993.64 784.779C5031.56 781.187 5028.64 861.795 5029.02 921.221C5146.29 918.641 5366.99 923.585 5446.82 913.476L5548.5 932.535C5513.07 940.692 5876.79 962.591 5820.37 974.873Z" stroke="url(#paint2_linear)"/>
</g>
<g filter="url(#filter4_f)">
<path d="M1034.29 918.873C964.036 934.166 465.209 899.486 419.766 908.031C308.857 928.886 264.746 931.654 252.836 926.152C244.252 922.186 243.13 896.67 242.931 865.221C203.192 866.095 192.903 885.375 183.398 889.113C145.842 903.882 68.7511 870.375 76.1941 871.315C83.9238 872.292 172.285 824.691 76.1274 802.953C-20.0297 781.215 178.635 731.518 207.551 728.779C245.469 725.187 242.554 805.795 242.931 865.221C360.201 862.641 580.905 867.585 660.731 857.476L762.411 876.535C726.978 884.692 1090.7 906.591 1034.29 918.873Z" fill="white"/>
<path d="M1034.29 918.873C964.036 934.166 465.209 899.486 419.766 908.031C308.857 928.886 264.746 931.654 252.836 926.152C244.252 922.186 243.13 896.67 242.931 865.221C203.192 866.095 192.903 885.375 183.398 889.113C145.842 903.882 68.7511 870.375 76.1941 871.315C83.9238 872.292 172.285 824.691 76.1274 802.953C-20.0297 781.215 178.635 731.518 207.551 728.779C245.469 725.187 242.554 805.795 242.931 865.221C360.201 862.641 580.905 867.585 660.731 857.476L762.411 876.535C726.978 884.692 1090.7 906.591 1034.29 918.873Z" stroke="black"/>
<path d="M1034.29 918.873C964.036 934.166 465.209 899.486 419.766 908.031C308.857 928.886 264.746 931.654 252.836 926.152C244.252 922.186 243.13 896.67 242.931 865.221C203.192 866.095 192.903 885.375 183.398 889.113C145.842 903.882 68.7511 870.375 76.1941 871.315C83.9238 872.292 172.285 824.691 76.1274 802.953C-20.0297 781.215 178.635 731.518 207.551 728.779C245.469 725.187 242.554 805.795 242.931 865.221C360.201 862.641 580.905 867.585 660.731 857.476L762.411 876.535C726.978 884.692 1090.7 906.591 1034.29 918.873Z" stroke="url(#paint3_linear)"/>
</g>
<g filter="url(#filter5_f)">
<path d="M2114.29 922.873C2044.04 938.166 1545.21 903.486 1499.77 912.031C1388.86 932.886 1344.75 935.654 1332.84 930.152C1324.25 926.186 1323.13 900.67 1322.93 869.221C1283.19 870.095 1272.9 889.375 1263.4 893.113C1225.84 907.882 1148.75 874.375 1156.19 875.315C1163.92 876.292 1252.28 828.691 1156.13 806.953C1059.97 785.215 1258.64 735.518 1287.55 732.779C1325.47 729.187 1322.55 809.795 1322.93 869.221C1440.2 866.641 1660.91 871.585 1740.73 861.476L1842.41 880.535C1806.98 888.692 2170.7 910.591 2114.29 922.873Z" fill="white"/>
<path d="M2114.29 922.873C2044.04 938.166 1545.21 903.486 1499.77 912.031C1388.86 932.886 1344.75 935.654 1332.84 930.152C1324.25 926.186 1323.13 900.67 1322.93 869.221C1283.19 870.095 1272.9 889.375 1263.4 893.113C1225.84 907.882 1148.75 874.375 1156.19 875.315C1163.92 876.292 1252.28 828.691 1156.13 806.953C1059.97 785.215 1258.64 735.518 1287.55 732.779C1325.47 729.187 1322.55 809.795 1322.93 869.221C1440.2 866.641 1660.91 871.585 1740.73 861.476L1842.41 880.535C1806.98 888.692 2170.7 910.591 2114.29 922.873Z" stroke="black"/>
<path d="M2114.29 922.873C2044.04 938.166 1545.21 903.486 1499.77 912.031C1388.86 932.886 1344.75 935.654 1332.84 930.152C1324.25 926.186 1323.13 900.67 1322.93 869.221C1283.19 870.095 1272.9 889.375 1263.4 893.113C1225.84 907.882 1148.75 874.375 1156.19 875.315C1163.92 876.292 1252.28 828.691 1156.13 806.953C1059.97 785.215 1258.64 735.518 1287.55 732.779C1325.47 729.187 1322.55 809.795 1322.93 869.221C1440.2 866.641 1660.91 871.585 1740.73 861.476L1842.41 880.535C1806.98 888.692 2170.7 910.591 2114.29 922.873Z" stroke="url(#paint4_linear)"/>
</g>
<g filter="url(#filter6_f)">
<path d="M2878.29 680.873C2808.04 696.166 2309.21 661.486 2263.77 670.031C2152.86 690.886 2108.75 693.654 2096.84 688.152C2088.25 684.186 2087.13 658.67 2086.93 627.221C2047.19 628.095 2036.9 647.375 2027.4 651.113C1989.84 665.882 1912.75 632.375 1920.19 633.315C1927.92 634.292 2016.28 586.691 1920.13 564.953C1823.97 543.215 2022.64 493.518 2051.55 490.779C2089.47 487.187 2086.55 567.795 2086.93 627.221C2204.2 624.641 2424.91 629.585 2504.73 619.476L2606.41 638.535C2570.98 646.692 2934.7 668.591 2878.29 680.873Z" fill="white"/>
<path d="M2878.29 680.873C2808.04 696.166 2309.21 661.486 2263.77 670.031C2152.86 690.886 2108.75 693.654 2096.84 688.152C2088.25 684.186 2087.13 658.67 2086.93 627.221C2047.19 628.095 2036.9 647.375 2027.4 651.113C1989.84 665.882 1912.75 632.375 1920.19 633.315C1927.92 634.292 2016.28 586.691 1920.13 564.953C1823.97 543.215 2022.64 493.518 2051.55 490.779C2089.47 487.187 2086.55 567.795 2086.93 627.221C2204.2 624.641 2424.91 629.585 2504.73 619.476L2606.41 638.535C2570.98 646.692 2934.7 668.591 2878.29 680.873Z" stroke="black"/>
<path d="M2878.29 680.873C2808.04 696.166 2309.21 661.486 2263.77 670.031C2152.86 690.886 2108.75 693.654 2096.84 688.152C2088.25 684.186 2087.13 658.67 2086.93 627.221C2047.19 628.095 2036.9 647.375 2027.4 651.113C1989.84 665.882 1912.75 632.375 1920.19 633.315C1927.92 634.292 2016.28 586.691 1920.13 564.953C1823.97 543.215 2022.64 493.518 2051.55 490.779C2089.47 487.187 2086.55 567.795 2086.93 627.221C2204.2 624.641 2424.91 629.585 2504.73 619.476L2606.41 638.535C2570.98 646.692 2934.7 668.591 2878.29 680.873Z" stroke="url(#paint5_linear)"/>
</g>
<g filter="url(#filter7_f)">
<path d="M4830.28 579.873C4760.04 595.166 4261.21 560.486 4215.77 569.031C4104.86 589.886 4060.74 592.654 4048.84 587.152C4040.25 583.186 4039.13 557.67 4038.93 526.221C3999.19 527.095 3988.9 546.375 3979.4 550.113C3941.84 564.882 3864.75 531.375 3872.19 532.315C3879.92 533.292 3968.28 485.691 3872.13 463.953C3775.97 442.215 3974.63 392.518 4003.55 389.779C4041.47 386.187 4038.55 466.795 4038.93 526.221C4156.2 523.641 4376.9 528.585 4456.73 518.476L4558.41 537.535C4522.98 545.692 4886.7 567.591 4830.28 579.873Z" fill="url(#paint6_linear)"/>
<path d="M4830.28 579.873C4760.04 595.166 4261.21 560.486 4215.77 569.031C4104.86 589.886 4060.74 592.654 4048.84 587.152C4040.25 583.186 4039.13 557.67 4038.93 526.221C3999.19 527.095 3988.9 546.375 3979.4 550.113C3941.84 564.882 3864.75 531.375 3872.19 532.315C3879.92 533.292 3968.28 485.691 3872.13 463.953C3775.97 442.215 3974.63 392.518 4003.55 389.779C4041.47 386.187 4038.55 466.795 4038.93 526.221C4156.2 523.641 4376.9 528.585 4456.73 518.476L4558.41 537.535C4522.98 545.692 4886.7 567.591 4830.28 579.873Z" stroke="black"/>
<path d="M4830.28 579.873C4760.04 595.166 4261.21 560.486 4215.77 569.031C4104.86 589.886 4060.74 592.654 4048.84 587.152C4040.25 583.186 4039.13 557.67 4038.93 526.221C3999.19 527.095 3988.9 546.375 3979.4 550.113C3941.84 564.882 3864.75 531.375 3872.19 532.315C3879.92 533.292 3968.28 485.691 3872.13 463.953C3775.97 442.215 3974.63 392.518 4003.55 389.779C4041.47 386.187 4038.55 466.795 4038.93 526.221C4156.2 523.641 4376.9 528.585 4456.73 518.476L4558.41 537.535C4522.98 545.692 4886.7 567.591 4830.28 579.873Z" stroke="url(#paint7_linear)"/>
</g>
<g filter="url(#filter8_f)">
<path d="M111.066 1021.88C126.922 1009.04 249.387 1023.74 259.737 1016.43C284.997 998.593 295.424 995.583 298.67 999.387C301.01 1002.13 303.039 1020.95 305.254 1044.18C314.76 1042.67 315.908 1028.2 317.938 1025.23C325.96 1013.5 346.826 1036.56 344.97 1036.03C343.042 1035.48 325.053 1072.58 349.698 1086.53C374.343 1100.49 329.947 1141.55 323.175 1144.21C314.295 1147.69 309.441 1088.08 305.254 1044.18C277.203 1048.66 223.736 1049.84 205.218 1059.05L179.428 1047.2C187.395 1040.4 98.3319 1032.19 111.066 1021.88Z" fill="white"/>
<path d="M111.066 1021.88C126.922 1009.04 249.387 1023.74 259.737 1016.43C284.997 998.593 295.424 995.583 298.67 999.387C301.01 1002.13 303.039 1020.95 305.254 1044.18C314.76 1042.67 315.908 1028.2 317.938 1025.23C325.96 1013.5 346.826 1036.56 344.97 1036.03C343.042 1035.48 325.053 1072.58 349.698 1086.53C374.343 1100.49 329.947 1141.55 323.175 1144.21C314.295 1147.69 309.441 1088.08 305.254 1044.18C277.203 1048.66 223.736 1049.84 205.218 1059.05L179.428 1047.2C187.395 1040.4 98.3319 1032.19 111.066 1021.88Z" stroke="black"/>
<path d="M111.066 1021.88C126.922 1009.04 249.387 1023.74 259.737 1016.43C284.997 998.593 295.424 995.583 298.67 999.387C301.01 1002.13 303.039 1020.95 305.254 1044.18C314.76 1042.67 315.908 1028.2 317.938 1025.23C325.96 1013.5 346.826 1036.56 344.97 1036.03C343.042 1035.48 325.053 1072.58 349.698 1086.53C374.343 1100.49 329.947 1141.55 323.175 1144.21C314.295 1147.69 309.441 1088.08 305.254 1044.18C277.203 1048.66 223.736 1049.84 205.218 1059.05L179.428 1047.2C187.395 1040.4 98.3319 1032.19 111.066 1021.88Z" stroke="url(#paint8_linear)"/>
</g>
<g filter="url(#filter9_f)">
<path d="M2534.29 240.873C2464.04 256.166 1965.21 221.486 1919.77 230.031C1808.86 250.886 1764.75 253.654 1752.84 248.152C1744.25 244.186 1743.13 218.67 1742.93 187.221C1703.19 188.095 1692.9 207.375 1683.4 211.113C1645.84 225.882 1568.75 192.375 1576.19 193.315C1583.92 194.292 1672.28 146.691 1576.13 124.953C1479.97 103.215 1678.63 53.5176 1707.55 50.7787C1745.47 47.1873 1742.55 127.795 1742.93 187.221C1860.2 184.641 2080.91 189.585 2160.73 179.476L2262.41 198.535C2226.98 206.692 2590.7 228.591 2534.29 240.873Z" fill="white"/>
<path d="M2534.29 240.873C2464.04 256.166 1965.21 221.486 1919.77 230.031C1808.86 250.886 1764.75 253.654 1752.84 248.152C1744.25 244.186 1743.13 218.67 1742.93 187.221C1703.19 188.095 1692.9 207.375 1683.4 211.113C1645.84 225.882 1568.75 192.375 1576.19 193.315C1583.92 194.292 1672.28 146.691 1576.13 124.953C1479.97 103.215 1678.63 53.5176 1707.55 50.7787C1745.47 47.1873 1742.55 127.795 1742.93 187.221C1860.2 184.641 2080.91 189.585 2160.73 179.476L2262.41 198.535C2226.98 206.692 2590.7 228.591 2534.29 240.873Z" stroke="black"/>
<path d="M2534.29 240.873C2464.04 256.166 1965.21 221.486 1919.77 230.031C1808.86 250.886 1764.75 253.654 1752.84 248.152C1744.25 244.186 1743.13 218.67 1742.93 187.221C1703.19 188.095 1692.9 207.375 1683.4 211.113C1645.84 225.882 1568.75 192.375 1576.19 193.315C1583.92 194.292 1672.28 146.691 1576.13 124.953C1479.97 103.215 1678.63 53.5176 1707.55 50.7787C1745.47 47.1873 1742.55 127.795 1742.93 187.221C1860.2 184.641 2080.91 189.585 2160.73 179.476L2262.41 198.535C2226.98 206.692 2590.7 228.591 2534.29 240.873Z" stroke="url(#paint9_linear)"/>
</g>
<g filter="url(#filter10_f)">
<path d="M3874.32 1130.96C3918.53 1113.56 4251.11 1070.5 4279.88 1060C4350.1 1034.38 4378.75 1027.29 4387.3 1028.89C4393.46 1030.04 4397.53 1044.24 4401.77 1061.88C4427.79 1056.41 4432.04 1044.29 4437.8 1040.99C4460.57 1027.99 4515.65 1037.15 4510.63 1037.55C4505.42 1037.97 4453.53 1075.79 4519.61 1075.95C4585.68 1076.11 4461.52 1128.94 4442.86 1134.1C4418.39 1140.87 4409.78 1095.22 4401.77 1061.88C4324.99 1078.03 4179.19 1102.93 4128.01 1118.62L4058.65 1120.66C4080.89 1111.63 3838.82 1144.93 3874.32 1130.96Z" fill="white"/>
<path d="M3874.32 1130.96C3918.53 1113.56 4251.11 1070.5 4279.88 1060C4350.1 1034.38 4378.75 1027.29 4387.3 1028.89C4393.46 1030.04 4397.53 1044.24 4401.77 1061.88C4427.79 1056.41 4432.04 1044.29 4437.8 1040.99C4460.57 1027.99 4515.65 1037.15 4510.63 1037.55C4505.42 1037.97 4453.53 1075.79 4519.61 1075.95C4585.68 1076.11 4461.52 1128.94 4442.86 1134.1C4418.39 1140.87 4409.78 1095.22 4401.77 1061.88C4324.99 1078.03 4179.19 1102.93 4128.01 1118.62L4058.65 1120.66C4080.89 1111.63 3838.82 1144.93 3874.32 1130.96Z" stroke="black"/>
<path d="M3874.32 1130.96C3918.53 1113.56 4251.11 1070.5 4279.88 1060C4350.1 1034.38 4378.75 1027.29 4387.3 1028.89C4393.46 1030.04 4397.53 1044.24 4401.77 1061.88C4427.79 1056.41 4432.04 1044.29 4437.8 1040.99C4460.57 1027.99 4515.65 1037.15 4510.63 1037.55C4505.42 1037.97 4453.53 1075.79 4519.61 1075.95C4585.68 1076.11 4461.52 1128.94 4442.86 1134.1C4418.39 1140.87 4409.78 1095.22 4401.77 1061.88C4324.99 1078.03 4179.19 1102.93 4128.01 1118.62L4058.65 1120.66C4080.89 1111.63 3838.82 1144.93 3874.32 1130.96Z" stroke="url(#paint10_linear)"/>
</g>
<g filter="url(#filter11_f)">
<path d="M5273.67 1183.45C5332.87 1212.64 4952.98 1210.18 4946.78 1270.92C4939.51 1342.02 4826.45 1296.52 4747.87 1302.92C4729.25 1304.44 4688.88 1279.44 4642.98 1247.85C4609.55 1252.86 4575.15 1256.63 4542.95 1259.53C4557.32 1270.3 4571.45 1280.22 4584.25 1288.58C4609.87 1289.91 4629.32 1293.72 4634.98 1302.92C4648 1324.12 4621.88 1313.14 4584.25 1288.58C4512.62 1284.83 4392.82 1300.36 4391.87 1270.92C4391.8 1268.69 4460.11 1266.99 4542.95 1259.53C4473.46 1207.49 4398.3 1135.86 4440.5 1127.45C4470.93 1121.39 4564.95 1194.15 4642.98 1247.85C4747.24 1232.22 4842.1 1204.51 4831.67 1153.49C4762.79 1150.24 4708.36 1146.63 4690.23 1141.71C4565.08 1107.68 4780.84 1079.71 4818.41 1127.45C4825.72 1136.74 4830.01 1145.41 4831.67 1153.49C4995.18 1161.19 5240.06 1166.88 5273.67 1183.45Z" fill="white"/>
</g>
<g filter="url(#filter12_f)">
<path d="M1073.8 366.451C1132.99 395.637 753.106 393.18 746.901 453.923C739.64 525.016 626.575 479.518 547.999 485.923C529.372 487.441 489.007 462.443 443.107 430.851C409.675 435.864 375.277 439.635 343.075 442.534C357.446 453.297 371.576 463.222 384.374 471.576C409.991 472.914 429.447 476.717 435.103 485.923C448.128 507.124 422.001 496.137 384.374 471.576C312.745 467.834 192.948 483.364 192 453.923C191.928 451.687 260.234 449.994 343.075 442.534C273.582 390.492 198.42 318.857 240.621 310.451C271.053 304.389 365.079 377.147 443.107 430.851C547.363 415.219 642.225 387.511 631.791 336.486C562.919 333.24 508.484 329.635 490.353 324.706C365.209 290.683 580.964 262.706 618.535 310.451C625.847 319.744 630.139 328.407 631.791 336.486C795.301 344.193 1040.18 349.876 1073.8 366.451Z" fill="white"/>
</g>
<g filter="url(#filter13_f)">
<path d="M5735.75 773.471C5741.96 712.728 5662.34 702.657 5603.15 673.471C5555.37 649.914 5686.24 754.573 5625.07 737.941C5499.92 703.918 5096.87 785.892 5178.83 673.471C5182.63 668.256 4926.5 783.226 4926.7 789.471C4927.99 829.441 5181.67 754.523 5203.14 789.471C5242.02 852.755 5356.21 788.727 5432.8 773.471C5481.13 763.844 5486.56 809.571 5536.85 805.471C5615.43 799.067 5728.49 844.565 5735.75 773.471Z" fill="white"/>
</g>
<g filter="url(#filter14_f)">
<path d="M3080.05 592.471C3086.26 531.728 3006.64 521.657 2947.45 492.471C2899.67 468.914 3030.54 573.573 2969.37 556.941C2844.22 522.918 2441.17 604.892 2523.13 492.471C2526.93 487.256 2270.8 602.226 2271 608.471C2272.29 648.441 2525.97 573.523 2547.44 608.471C2586.32 671.755 2700.51 607.727 2777.1 592.471C2825.43 582.844 2830.86 628.571 2881.15 624.471C2959.73 618.067 3072.79 663.565 3080.05 592.471Z" fill="white"/>
</g>
<g filter="url(#filter15_f)">
<path d="M6197.59 858.739C6227.18 860.637 6425.31 813.569 6444.33 814.227C6490.76 815.834 6508.77 814.137 6513.11 811.038C6516.24 808.805 6514.57 797.949 6512.04 784.645C6528.12 782.433 6533.87 789.912 6538.01 790.874C6554.38 794.675 6582.66 775.506 6579.74 776.387C6576.7 777.302 6537.14 762.927 6574.08 747.493C6611.02 732.058 6526.83 723.965 6514.95 724.686C6499.37 725.632 6507.25 759.508 6512.04 784.645C6464.56 791.175 6376.03 807.605 6343.02 808.52C6340.49 808.59 6338.02 808.635 6335.61 808.656C6372.28 798.689 6399.73 791.423 6403.04 791.289C6347.76 768.669 6385.32 762.635 6355.25 748.528C6350.41 746.256 6357.64 742.62 6342.12 742.894C6330.56 743.098 6315.87 751.207 6302.94 756.919C6245.19 782.422 6254.46 809.358 6335.61 808.656C6320.06 812.884 6302.84 817.599 6285.11 822.461C6188.56 821.991 6057.04 867.845 6118.27 866.52C6125.33 866.367 6209.9 843.083 6285.11 822.461C6291.46 822.492 6297.65 822.723 6303.63 823.181C6318.59 824.326 6173.84 857.214 6197.59 858.739Z" fill="white"/>
<path d="M6197.59 858.739C6227.18 860.637 6425.31 813.569 6444.33 814.227C6490.76 815.834 6508.77 814.137 6513.11 811.038C6516.24 808.805 6514.57 797.949 6512.04 784.645C6528.12 782.433 6533.87 789.912 6538.01 790.874C6554.38 794.675 6582.66 775.506 6579.74 776.387C6576.7 777.302 6537.14 762.927 6574.08 747.493C6611.02 732.058 6526.83 723.965 6514.95 724.686C6499.37 725.632 6507.25 759.508 6512.04 784.645C6464.56 791.175 6376.03 807.605 6343.02 808.52C6340.49 808.59 6338.02 808.635 6335.61 808.656C6372.28 798.689 6399.73 791.423 6403.04 791.289C6347.76 768.669 6385.32 762.635 6355.25 748.528C6350.41 746.256 6357.64 742.62 6342.12 742.894C6330.56 743.098 6315.87 751.207 6302.94 756.919C6245.19 782.422 6254.46 809.358 6335.61 808.656C6320.06 812.884 6302.84 817.599 6285.11 822.461C6188.56 821.991 6057.04 867.845 6118.27 866.52C6125.33 866.367 6209.9 843.083 6285.11 822.461C6291.46 822.492 6297.65 822.723 6303.63 823.181C6318.59 824.326 6173.84 857.214 6197.59 858.739Z" stroke="black"/>
</g>
<g filter="url(#filter16_f)">
<path d="M1949.63 1082.74C1979.21 1084.64 2177.35 1037.57 2196.37 1038.23C2242.8 1039.83 2260.81 1038.14 2265.15 1035.04C2268.28 1032.8 2266.61 1021.95 2264.07 1008.65C2280.16 1006.43 2285.91 1013.91 2290.05 1014.87C2306.42 1018.67 2334.7 999.506 2331.77 1000.39C2328.74 1001.3 2289.17 986.927 2326.12 971.493C2363.06 956.058 2278.87 947.965 2266.99 948.686C2251.41 949.632 2259.28 983.508 2264.07 1008.65C2216.6 1015.18 2128.07 1031.61 2095.06 1032.52C2092.53 1032.59 2090.06 1032.64 2087.65 1032.66C2124.32 1022.69 2151.77 1015.42 2155.08 1015.29C2099.8 992.669 2137.36 986.635 2107.29 972.528C2102.45 970.256 2109.68 966.62 2094.16 966.894C2082.59 967.098 2067.91 975.207 2054.97 980.919C1997.22 1006.42 2006.5 1033.36 2087.65 1032.66C2072.1 1036.88 2054.88 1041.6 2037.15 1046.46C1940.59 1045.99 1809.08 1091.85 1870.31 1090.52C1877.36 1090.37 1961.93 1067.08 2037.15 1046.46C2043.5 1046.49 2049.69 1046.72 2055.67 1047.18C2070.63 1048.33 1925.87 1081.21 1949.63 1082.74Z" fill="white"/>
<path d="M1949.63 1082.74C1979.21 1084.64 2177.35 1037.57 2196.37 1038.23C2242.8 1039.83 2260.81 1038.14 2265.15 1035.04C2268.28 1032.8 2266.61 1021.95 2264.07 1008.65C2280.16 1006.43 2285.91 1013.91 2290.05 1014.87C2306.42 1018.67 2334.7 999.506 2331.77 1000.39C2328.74 1001.3 2289.17 986.927 2326.12 971.493C2363.06 956.058 2278.87 947.965 2266.99 948.686C2251.41 949.632 2259.28 983.508 2264.07 1008.65C2216.6 1015.18 2128.07 1031.61 2095.06 1032.52C2092.53 1032.59 2090.06 1032.64 2087.65 1032.66C2124.32 1022.69 2151.77 1015.42 2155.08 1015.29C2099.8 992.669 2137.36 986.635 2107.29 972.528C2102.45 970.256 2109.68 966.62 2094.16 966.894C2082.59 967.098 2067.91 975.207 2054.97 980.919C1997.22 1006.42 2006.5 1033.36 2087.65 1032.66C2072.1 1036.88 2054.88 1041.6 2037.15 1046.46C1940.59 1045.99 1809.08 1091.85 1870.31 1090.52C1877.36 1090.37 1961.93 1067.08 2037.15 1046.46C2043.5 1046.49 2049.69 1046.72 2055.67 1047.18C2070.63 1048.33 1925.87 1081.21 1949.63 1082.74Z" stroke="black"/>
</g>
<g filter="url(#filter17_f)">
<path d="M5994.54 1242.2C6000.78 1217.28 6124.3 1101.02 6129.08 1085.47C6140.75 1047.53 6148.44 1034.78 6153.98 1033.98C6157.96 1033.41 6172.31 1043.92 6189.74 1057.17C6197.57 1046.37 6189.06 1035.51 6188.98 1031.43C6188.67 1015.32 6223.32 1009.27 6221.24 1010.83C6219.09 1012.44 6226.92 1055.78 6259.05 1039.74C6291.19 1023.7 6277.11 1096.88 6272.57 1105.63C6266.63 1117.11 6222.67 1082.23 6189.74 1057.17C6166.63 1089.05 6131.61 1195.77 6120.5 1221L6074.82 1188.75C6077.72 1176 5989.53 1262.21 5994.54 1242.2Z" fill="white"/>
<path d="M5994.54 1242.2C6000.78 1217.28 6124.3 1101.02 6129.08 1085.47C6140.75 1047.53 6148.44 1034.78 6153.98 1033.98C6157.96 1033.41 6172.31 1043.92 6189.74 1057.17C6197.57 1046.37 6189.06 1035.51 6188.98 1031.43C6188.67 1015.32 6223.32 1009.27 6221.24 1010.83C6219.09 1012.44 6226.92 1055.78 6259.05 1039.74C6291.19 1023.7 6277.11 1096.88 6272.57 1105.63C6266.63 1117.11 6222.67 1082.23 6189.74 1057.17C6166.63 1089.05 6131.61 1195.77 6120.5 1221L6074.82 1188.75C6077.72 1176 5989.53 1262.21 5994.54 1242.2Z" stroke="black"/>
<path d="M5994.54 1242.2C6000.78 1217.28 6124.3 1101.02 6129.08 1085.47C6140.75 1047.53 6148.44 1034.78 6153.98 1033.98C6157.96 1033.41 6172.31 1043.92 6189.74 1057.17C6197.57 1046.37 6189.06 1035.51 6188.98 1031.43C6188.67 1015.32 6223.32 1009.27 6221.24 1010.83C6219.09 1012.44 6226.92 1055.78 6259.05 1039.74C6291.19 1023.7 6277.11 1096.88 6272.57 1105.63C6266.63 1117.11 6222.67 1082.23 6189.74 1057.17C6166.63 1089.05 6131.61 1195.77 6120.5 1221L6074.82 1188.75C6077.72 1176 5989.53 1262.21 5994.54 1242.2Z" stroke="url(#paint11_linear)"/>
</g>
<g filter="url(#filter18_f)">
<path d="M742.295 1240.52C748.534 1215.61 872.051 1099.34 876.832 1083.8C888.501 1045.86 896.198 1033.11 901.731 1032.31C905.719 1031.74 920.062 1042.24 937.491 1055.5C945.32 1044.7 936.813 1033.84 936.735 1029.76C936.424 1013.65 971.076 1007.59 968.999 1009.15C966.842 1010.77 974.677 1054.11 1006.81 1038.07C1038.94 1022.03 1024.86 1095.21 1020.33 1103.96C1014.38 1115.43 970.426 1080.55 937.491 1055.5C914.387 1087.37 879.363 1194.09 868.255 1219.33L822.573 1187.07C825.475 1174.32 737.284 1260.53 742.295 1240.52Z" fill="white"/>
<path d="M742.295 1240.52C748.534 1215.61 872.051 1099.34 876.832 1083.8C888.501 1045.86 896.198 1033.11 901.731 1032.31C905.719 1031.74 920.062 1042.24 937.491 1055.5C945.32 1044.7 936.813 1033.84 936.735 1029.76C936.424 1013.65 971.076 1007.59 968.999 1009.15C966.842 1010.77 974.677 1054.11 1006.81 1038.07C1038.94 1022.03 1024.86 1095.21 1020.33 1103.96C1014.38 1115.43 970.426 1080.55 937.491 1055.5C914.387 1087.37 879.363 1194.09 868.255 1219.33L822.573 1187.07C825.475 1174.32 737.284 1260.53 742.295 1240.52Z" stroke="black"/>
<path d="M742.295 1240.52C748.534 1215.61 872.051 1099.34 876.832 1083.8C888.501 1045.86 896.198 1033.11 901.731 1032.31C905.719 1031.74 920.062 1042.24 937.491 1055.5C945.32 1044.7 936.813 1033.84 936.735 1029.76C936.424 1013.65 971.076 1007.59 968.999 1009.15C966.842 1010.77 974.677 1054.11 1006.81 1038.07C1038.94 1022.03 1024.86 1095.21 1020.33 1103.96C1014.38 1115.43 970.426 1080.55 937.491 1055.5C914.387 1087.37 879.363 1194.09 868.255 1219.33L822.573 1187.07C825.475 1174.32 737.284 1260.53 742.295 1240.52Z" stroke="url(#paint12_linear)"/>
</g>
<g filter="url(#filter19_f)">
<path d="M2284.3 922.523C2290.53 897.61 2414.05 781.345 2418.83 765.8C2430.5 727.859 2438.2 715.108 2443.73 714.31C2447.72 713.735 2462.06 724.241 2479.49 737.499C2487.32 726.697 2478.81 715.836 2478.73 711.759C2478.42 695.65 2513.08 689.595 2511 691.151C2508.84 692.766 2516.68 736.108 2548.81 720.067C2580.94 704.026 2566.86 777.209 2562.33 785.959C2556.38 797.433 2512.43 762.551 2479.49 737.499C2456.39 769.374 2421.36 876.092 2410.25 901.326L2364.57 869.075C2367.47 856.321 2279.28 942.532 2284.3 922.523Z" fill="white"/>
<path d="M2284.3 922.523C2290.53 897.61 2414.05 781.345 2418.83 765.8C2430.5 727.859 2438.2 715.108 2443.73 714.31C2447.72 713.735 2462.06 724.241 2479.49 737.499C2487.32 726.697 2478.81 715.836 2478.73 711.759C2478.42 695.65 2513.08 689.595 2511 691.151C2508.84 692.766 2516.68 736.108 2548.81 720.067C2580.94 704.026 2566.86 777.209 2562.33 785.959C2556.38 797.433 2512.43 762.551 2479.49 737.499C2456.39 769.374 2421.36 876.092 2410.25 901.326L2364.57 869.075C2367.47 856.321 2279.28 942.532 2284.3 922.523Z" stroke="black"/>
<path d="M2284.3 922.523C2290.53 897.61 2414.05 781.345 2418.83 765.8C2430.5 727.859 2438.2 715.108 2443.73 714.31C2447.72 713.735 2462.06 724.241 2479.49 737.499C2487.32 726.697 2478.81 715.836 2478.73 711.759C2478.42 695.65 2513.08 689.595 2511 691.151C2508.84 692.766 2516.68 736.108 2548.81 720.067C2580.94 704.026 2566.86 777.209 2562.33 785.959C2556.38 797.433 2512.43 762.551 2479.49 737.499C2456.39 769.374 2421.36 876.092 2410.25 901.326L2364.57 869.075C2367.47 856.321 2279.28 942.532 2284.3 922.523Z" stroke="url(#paint13_linear)"/>
</g>
<g filter="url(#filter20_f)">
<path d="M6593.96 1245.03C6565.66 1227.68 6630.81 1104.5 6615.01 1093.27C6576.44 1065.88 6571.36 1054.98 6581.6 1052.04C6588.98 1049.92 6636.37 1049.65 6694.78 1049.61C6693.22 1039.8 6657.42 1037.25 6650.49 1034.9C6623.12 1025.63 6685.47 1006.6 6683.71 1008.43C6683.05 1009.12 6751.97 1015.76 6842.53 1022.92C6880.39 965.406 6918.47 908.04 6948.24 892C6956.56 887.518 6969.65 962.955 6978.91 1032.73C6985.14 1033.12 6991.37 1033.52 6997.58 1033.9C7093.44 1025.55 7292.73 1016.9 7262 1034.9C7243.7 1045.63 7123.62 1041.65 6997.58 1033.9C6990.95 1034.48 6984.82 1035.05 6979.29 1035.62C6987.05 1094.7 6991.96 1148.84 6988.76 1145.7C6979.32 1136.44 6968.77 1141.16 6955.78 1138.55C6882.15 1123.74 6875.71 1141.64 6773.03 1121.87C6749.61 1150.08 6728.81 1166.13 6713.37 1156.76C6705.9 1166.61 6697.45 1177.54 6688.72 1188.82C6756.7 1246.12 6651.2 1329.58 6615.01 1293.06C6610.84 1288.85 6652.25 1235.9 6688.72 1188.82C6684.25 1185.05 6679.03 1181.4 6673 1177.9C6657.9 1169.15 6616.69 1258.96 6593.96 1245.03Z" fill="white"/>
<path d="M6593.96 1245.03C6565.66 1227.68 6630.81 1104.5 6615.01 1093.27C6576.44 1065.88 6571.36 1054.98 6581.6 1052.04C6588.98 1049.92 6636.37 1049.65 6694.78 1049.61C6693.22 1039.8 6657.42 1037.25 6650.49 1034.9C6623.12 1025.63 6685.47 1006.6 6683.71 1008.43C6683.05 1009.12 6751.97 1015.76 6842.53 1022.92C6880.39 965.406 6918.47 908.04 6948.24 892C6956.56 887.518 6969.65 962.955 6978.91 1032.73C6985.14 1033.12 6991.37 1033.52 6997.58 1033.9C7093.44 1025.55 7292.73 1016.9 7262 1034.9C7243.7 1045.63 7123.62 1041.65 6997.58 1033.9C6990.95 1034.48 6984.82 1035.05 6979.29 1035.62C6987.05 1094.7 6991.96 1148.84 6988.76 1145.7C6979.32 1136.44 6968.77 1141.16 6955.78 1138.55C6882.15 1123.74 6875.71 1141.64 6773.03 1121.87C6749.61 1150.08 6728.81 1166.13 6713.37 1156.76C6705.9 1166.61 6697.45 1177.54 6688.72 1188.82C6756.7 1246.12 6651.2 1329.58 6615.01 1293.06C6610.84 1288.85 6652.25 1235.9 6688.72 1188.82C6684.25 1185.05 6679.03 1181.4 6673 1177.9C6657.9 1169.15 6616.69 1258.96 6593.96 1245.03Z" stroke="black"/>
</g>
<g filter="url(#filter21_f)">
<path d="M6633.96 1271.22C6605.66 1253.87 6670.81 1130.69 6655.01 1119.46C6616.44 1092.07 6611.36 1081.17 6621.6 1078.23C6628.98 1076.12 6676.37 1075.84 6734.78 1075.8C6733.22 1065.99 6697.42 1063.44 6690.5 1061.09C6663.12 1051.82 6725.47 1032.79 6723.71 1034.62C6723.06 1035.31 6791.97 1041.95 6882.53 1049.11C6920.39 991.597 6958.47 934.231 6988.24 918.19C6996.56 913.709 7009.66 989.145 7018.91 1058.92C7025.14 1059.32 7031.37 1059.71 7037.58 1060.09C7133.44 1051.74 7332.73 1043.09 7302 1061.09C7283.7 1071.82 7163.62 1067.85 7037.58 1060.09C7030.95 1060.67 7024.82 1061.24 7019.29 1061.81C7027.05 1120.89 7031.97 1175.03 7028.76 1171.89C7019.32 1162.63 7008.77 1167.35 6995.78 1164.74C6922.15 1149.93 6915.71 1167.83 6813.03 1148.06C6789.61 1176.28 6768.81 1192.32 6753.38 1182.95C6745.9 1192.8 6737.46 1203.74 6728.72 1215.01C6796.7 1272.31 6691.2 1355.77 6655.01 1319.25C6650.84 1315.04 6692.26 1262.09 6728.72 1215.01C6724.25 1211.24 6719.04 1207.59 6713 1204.09C6697.9 1195.34 6656.69 1285.15 6633.96 1271.22Z" fill="url(#paint14_radial)"/>
</g>
<g filter="url(#filter22_f)">
<path d="M6568.47 1267.39C6544.33 1252.58 6599.92 1147.48 6586.43 1137.9C6553.52 1114.53 6549.19 1105.23 6557.93 1102.72C6564.22 1100.91 6604.66 1100.68 6654.5 1100.65C6653.16 1092.27 6622.62 1090.1 6616.71 1088.1C6593.35 1080.18 6646.55 1063.94 6645.05 1065.51C6644.49 1066.1 6703.3 1071.77 6780.57 1077.87C6812.87 1028.8 6845.36 979.849 6870.77 966.162C6877.87 962.338 6889.04 1026.71 6896.93 1086.24C6902.25 1086.58 6907.57 1086.91 6912.87 1087.24C6994.66 1080.12 7164.71 1072.73 7138.48 1088.1C7122.87 1097.25 7020.41 1093.86 6912.87 1087.24C6907.21 1087.73 6901.98 1088.22 6897.26 1088.71C6903.88 1139.11 6908.07 1185.31 6905.34 1182.63C6897.28 1174.74 6888.29 1178.76 6877.2 1176.53C6814.37 1163.9 6808.88 1179.17 6721.27 1162.3C6701.28 1186.38 6683.53 1200.07 6670.36 1192.07C6663.99 1200.47 6656.78 1209.81 6649.33 1219.43C6707.33 1268.32 6617.31 1339.54 6586.43 1308.37C6582.87 1304.78 6618.21 1259.6 6649.33 1219.43C6645.52 1216.21 6641.06 1213.09 6635.91 1210.11C6623.03 1202.64 6587.86 1279.28 6568.47 1267.39Z" fill="url(#paint15_radial)"/>
</g>
<g filter="url(#filter23_f)">
<path d="M3479.81 744.665C3438.41 719.284 3533.71 539.105 3510.6 522.687C3454.18 482.616 3446.76 466.68 3461.73 462.38C3472.52 459.281 3541.84 458.885 3627.28 458.824C3624.99 444.469 3572.64 440.745 3562.5 437.31C3522.46 423.739 3613.66 395.903 3611.09 398.591C3610.13 399.592 3710.94 409.313 3843.4 419.774C3898.78 335.653 3954.47 251.741 3998.03 228.279C4010.2 221.723 4029.35 332.066 4042.89 434.122C4052 434.706 4061.11 435.279 4070.2 435.839C4210.41 423.629 4501.93 410.97 4456.97 437.31C4430.21 452.993 4254.56 447.184 4070.2 435.839C4060.51 436.683 4051.53 437.525 4043.44 438.352C4054.8 524.768 4061.98 603.964 4057.3 599.37C4043.49 585.833 4028.06 592.737 4009.06 588.915C3901.35 567.249 3891.93 593.432 3741.74 564.51C3707.48 605.789 3677.06 629.26 3654.48 615.547C3643.55 629.957 3631.19 645.955 3618.42 662.446C3717.85 746.267 3563.53 868.346 3510.6 814.918C3504.5 808.76 3565.08 731.311 3618.42 662.446C3611.88 656.935 3604.25 651.59 3595.42 646.471C3573.33 633.669 3513.05 765.05 3479.81 744.665Z" fill="url(#paint16_radial)"/>
<path d="M3479.81 744.665C3438.41 719.284 3533.71 539.105 3510.6 522.687C3454.18 482.616 3446.76 466.68 3461.73 462.38C3472.52 459.281 3541.84 458.885 3627.28 458.824C3624.99 444.469 3572.64 440.745 3562.5 437.31C3522.46 423.739 3613.66 395.903 3611.09 398.591C3610.13 399.592 3710.94 409.313 3843.4 419.774C3898.78 335.653 3954.47 251.741 3998.03 228.279C4010.2 221.723 4029.35 332.066 4042.89 434.122C4052 434.706 4061.11 435.279 4070.2 435.839C4210.41 423.629 4501.93 410.97 4456.97 437.31C4430.21 452.993 4254.56 447.184 4070.2 435.839C4060.51 436.683 4051.53 437.525 4043.44 438.352C4054.8 524.768 4061.98 603.964 4057.3 599.37C4043.49 585.833 4028.06 592.737 4009.06 588.915C3901.35 567.249 3891.93 593.432 3741.74 564.51C3707.48 605.789 3677.06 629.26 3654.48 615.547C3643.55 629.957 3631.19 645.955 3618.42 662.446C3717.85 746.267 3563.53 868.346 3510.6 814.918C3504.5 808.76 3565.08 731.311 3618.42 662.446C3611.88 656.935 3604.25 651.59 3595.42 646.471C3573.33 633.669 3513.05 765.05 3479.81 744.665Z" stroke="black"/>
</g>
<g filter="url(#filter24_f)">
<path d="M3609.54 629.444C3581.94 612.523 3645.47 492.403 3630.06 481.458C3592.45 454.744 3587.5 444.12 3597.49 441.253C3604.68 439.187 3650.9 438.923 3707.85 438.882C3706.33 429.312 3671.43 426.83 3664.67 424.54C3637.97 415.492 3698.77 396.935 3697.06 398.727C3696.42 399.395 3763.62 405.875 3851.93 412.849C3888.86 356.768 3925.98 300.828 3955.02 285.186C3963.14 280.815 3975.9 354.378 3984.92 422.415C3991 422.804 3997.08 423.186 4003.14 423.559C4096.61 415.419 4290.95 406.98 4260.98 424.54C4243.14 434.995 4126.04 431.123 4003.14 423.559C3996.67 424.122 3990.69 424.684 3985.3 425.235C3992.87 482.845 3997.66 535.642 3994.53 532.58C3985.33 523.555 3975.04 528.158 3962.37 525.61C3890.57 511.166 3884.29 528.622 3784.16 509.34C3761.32 536.859 3741.04 552.507 3725.99 543.365C3718.7 552.971 3710.46 563.637 3701.95 574.631C3768.23 630.511 3665.36 711.897 3630.06 676.279C3626 672.174 3666.39 620.541 3701.95 574.631C3697.59 570.957 3692.5 567.394 3686.61 563.981C3671.89 555.446 3631.7 643.033 3609.54 629.444Z" fill="url(#paint17_radial)"/>
</g>
<g filter="url(#filter25_f)">
<path d="M2295.81 748.665C2254.41 723.284 2349.71 543.105 2326.6 526.687C2270.18 486.616 2262.76 470.68 2277.73 466.38C2288.52 463.281 2357.84 462.885 2443.28 462.824C2440.99 448.469 2388.64 444.745 2378.5 441.31C2338.46 427.739 2429.66 399.903 2427.09 402.591C2426.13 403.592 2526.94 413.313 2659.4 423.774C2714.78 339.653 2770.48 255.741 2814.03 232.279C2826.2 225.723 2845.35 336.066 2858.89 438.122C2868 438.706 2877.11 439.279 2886.2 439.839C3026.41 427.629 3317.93 414.97 3272.97 441.31C3246.21 456.993 3070.56 451.184 2886.2 439.839C2876.51 440.683 2867.53 441.525 2859.44 442.352C2870.8 528.768 2877.98 607.964 2873.3 603.37C2859.49 589.833 2844.06 596.737 2825.06 592.915C2717.35 571.249 2707.93 597.432 2557.74 568.51C2523.48 609.789 2493.06 633.26 2470.48 619.547C2459.55 633.957 2447.19 649.955 2434.42 666.446C2533.85 750.267 2379.53 872.346 2326.6 818.918C2320.5 812.76 2381.08 735.311 2434.42 666.446C2427.88 660.935 2420.25 655.59 2411.42 650.471C2389.33 637.669 2329.05 769.05 2295.81 748.665Z" fill="white"/>
<path d="M2295.81 748.665C2254.41 723.284 2349.71 543.105 2326.6 526.687C2270.18 486.616 2262.76 470.68 2277.73 466.38C2288.52 463.281 2357.84 462.885 2443.28 462.824C2440.99 448.469 2388.64 444.745 2378.5 441.31C2338.46 427.739 2429.66 399.903 2427.09 402.591C2426.13 403.592 2526.94 413.313 2659.4 423.774C2714.78 339.653 2770.48 255.741 2814.03 232.279C2826.2 225.723 2845.35 336.066 2858.89 438.122C2868 438.706 2877.11 439.279 2886.2 439.839C3026.41 427.629 3317.93 414.97 3272.97 441.31C3246.21 456.993 3070.56 451.184 2886.2 439.839C2876.51 440.683 2867.53 441.525 2859.44 442.352C2870.8 528.768 2877.98 607.964 2873.3 603.37C2859.49 589.833 2844.06 596.737 2825.06 592.915C2717.35 571.249 2707.93 597.432 2557.74 568.51C2523.48 609.789 2493.06 633.26 2470.48 619.547C2459.55 633.957 2447.19 649.955 2434.42 666.446C2533.85 750.267 2379.53 872.346 2326.6 818.918C2320.5 812.76 2381.08 735.311 2434.42 666.446C2427.88 660.935 2420.25 655.59 2411.42 650.471C2389.33 637.669 2329.05 769.05 2295.81 748.665Z" stroke="black"/>
</g>
<g filter="url(#filter26_f)">
<path d="M2335.81 816.665C2294.41 791.284 2389.71 611.105 2366.6 594.687C2310.18 554.616 2302.76 538.68 2317.73 534.38C2328.52 531.281 2397.84 530.885 2483.28 530.824C2480.99 516.469 2428.64 512.745 2418.5 509.31C2378.46 495.739 2469.66 467.903 2467.09 470.591C2466.13 471.592 2566.94 481.313 2699.4 491.774C2754.78 407.653 2810.47 323.741 2854.03 300.279C2866.2 293.723 2885.35 404.066 2898.89 506.122C2908 506.706 2917.11 507.279 2926.2 507.839C3066.41 495.629 3357.93 482.97 3312.97 509.31C3286.21 524.993 3110.56 519.184 2926.2 507.839C2916.51 508.683 2907.53 509.525 2899.44 510.352C2910.8 596.768 2917.98 675.964 2913.3 671.37C2899.49 657.833 2884.06 664.737 2865.06 660.915C2757.35 639.249 2747.93 665.432 2597.74 636.51C2563.48 677.789 2533.06 701.26 2510.48 687.547C2499.55 701.957 2487.19 717.955 2474.42 734.446C2573.85 818.267 2419.53 940.346 2366.6 886.918C2360.5 880.76 2421.08 803.311 2474.42 734.446C2467.88 728.935 2460.25 723.59 2451.42 718.471C2429.33 705.669 2369.05 837.05 2335.81 816.665Z" fill="url(#paint18_radial)"/>
</g>
<g filter="url(#filter27_f)">
<path d="M2305.54 761.444C2277.94 744.523 2341.47 624.403 2326.06 613.458C2288.45 586.744 2283.5 576.12 2293.49 573.253C2300.68 571.187 2346.9 570.923 2403.85 570.882C2402.33 561.312 2367.43 558.83 2360.67 556.54C2333.97 547.492 2394.77 528.935 2393.06 530.727C2392.42 531.395 2459.62 537.875 2547.93 544.849C2584.86 488.768 2621.98 432.828 2651.02 417.186C2659.14 412.815 2671.9 486.378 2680.92 554.415C2687 554.804 2693.08 555.186 2699.14 555.559C2792.61 547.419 2986.95 538.98 2956.98 556.54C2939.14 566.995 2822.04 563.123 2699.14 555.559C2692.67 556.122 2686.69 556.684 2681.3 557.235C2688.87 614.845 2693.66 667.642 2690.53 664.58C2681.33 655.555 2671.04 660.158 2658.37 657.61C2586.57 643.166 2580.29 660.622 2480.16 641.34C2457.32 668.859 2437.04 684.507 2421.99 675.365C2414.7 684.971 2406.46 695.637 2397.95 706.631C2464.23 762.511 2361.36 843.897 2326.06 808.279C2322 804.174 2362.39 752.541 2397.95 706.631C2393.59 702.957 2388.5 699.394 2382.61 695.981C2367.89 687.446 2327.7 775.033 2305.54 761.444Z" fill="url(#paint19_radial)"/>
</g>
<g filter="url(#filter28_f)">
<path d="M2174.96 1268.22C2146.66 1250.87 2211.81 1127.69 2196.01 1116.46C2157.44 1089.07 2152.36 1078.17 2162.6 1075.23C2169.98 1073.12 2217.37 1072.84 2275.78 1072.8C2274.22 1062.99 2238.42 1060.44 2231.5 1058.09C2204.12 1048.82 2266.47 1029.79 2264.71 1031.62C2264.06 1032.31 2332.97 1038.95 2423.53 1046.11C2461.39 988.597 2499.47 931.231 2529.25 915.19C2537.57 910.709 2550.66 986.145 2559.91 1055.92C2566.14 1056.32 2572.37 1056.71 2578.58 1057.09C2674.44 1048.74 2873.73 1040.09 2843 1058.09C2824.7 1068.82 2704.62 1064.85 2578.58 1057.09C2571.95 1057.67 2565.82 1058.24 2560.29 1058.81C2568.05 1117.89 2572.97 1172.03 2569.76 1168.89C2560.32 1159.63 2549.77 1164.35 2536.78 1161.74C2463.15 1146.93 2456.71 1164.83 2354.03 1145.06C2330.61 1173.28 2309.81 1189.32 2294.38 1179.95C2286.9 1189.8 2278.46 1200.74 2269.72 1212.01C2337.7 1269.31 2232.2 1352.77 2196.01 1316.25C2191.84 1312.04 2233.26 1259.09 2269.72 1212.01C2265.25 1208.24 2260.04 1204.59 2254 1201.09C2238.9 1192.34 2197.69 1282.15 2174.96 1268.22Z" fill="white"/>
<path d="M2174.96 1268.22C2146.66 1250.87 2211.81 1127.69 2196.01 1116.46C2157.44 1089.07 2152.36 1078.17 2162.6 1075.23C2169.98 1073.12 2217.37 1072.84 2275.78 1072.8C2274.22 1062.99 2238.42 1060.44 2231.5 1058.09C2204.12 1048.82 2266.47 1029.79 2264.71 1031.62C2264.06 1032.31 2332.97 1038.95 2423.53 1046.11C2461.39 988.597 2499.47 931.231 2529.25 915.19C2537.57 910.709 2550.66 986.145 2559.91 1055.92C2566.14 1056.32 2572.37 1056.71 2578.58 1057.09C2674.44 1048.74 2873.73 1040.09 2843 1058.09C2824.7 1068.82 2704.62 1064.85 2578.58 1057.09C2571.95 1057.67 2565.82 1058.24 2560.29 1058.81C2568.05 1117.89 2572.97 1172.03 2569.76 1168.89C2560.32 1159.63 2549.77 1164.35 2536.78 1161.74C2463.15 1146.93 2456.71 1164.83 2354.03 1145.06C2330.61 1173.28 2309.81 1189.32 2294.38 1179.95C2286.9 1189.8 2278.46 1200.74 2269.72 1212.01C2337.7 1269.31 2232.2 1352.77 2196.01 1316.25C2191.84 1312.04 2233.26 1259.09 2269.72 1212.01C2265.25 1208.24 2260.04 1204.59 2254 1201.09C2238.9 1192.34 2197.69 1282.15 2174.96 1268.22Z" stroke="black"/>
</g>
<defs>
<filter id="filter0_f" x="2517" y="610" width="2783" height="542" filterUnits="userSpaceOnUse" color-interpolation-filters="sRGB">
<feFlood flood-opacity="0" result="BackgroundImageFix"/>
<feBlend mode="normal" in="SourceGraphic" in2="BackgroundImageFix" result="shape"/>
<feGaussianBlur stdDeviation="25" result="effect1_foregroundBlur"/>
</filter>
<filter id="filter1_f" x="2490" y="693" width="2783" height="542" filterUnits="userSpaceOnUse" color-interpolation-filters="sRGB">
<feFlood flood-opacity="0" result="BackgroundImageFix"/>
<feBlend mode="normal" in="SourceGraphic" in2="BackgroundImageFix" result="shape"/>
<feGaussianBlur stdDeviation="25" result="effect1_foregroundBlur"/>
</filter>
<filter id="filter2_f" x="2661" y="808" width="2224.55" height="450" filterUnits="userSpaceOnUse" color-interpolation-filters="sRGB">
<feFlood flood-opacity="0" result="BackgroundImageFix"/>
<feBlend mode="normal" in="SourceGraphic" in2="BackgroundImageFix" result="shape"/>
<feGaussianBlur stdDeviation="25" result="effect1_foregroundBlur"/>
</filter>
<filter id="filter3_f" x="4786.15" y="734.663" width="1090.19" height="299.951" filterUnits="userSpaceOnUse" color-interpolation-filters="sRGB">
<feFlood flood-opacity="0" result="BackgroundImageFix"/>
<feBlend mode="normal" in="SourceGraphic" in2="BackgroundImageFix" result="shape"/>
<feGaussianBlur stdDeviation="25" result="effect1_foregroundBlur"/>
</filter>
<filter id="filter4_f" x="0.0576477" y="678.663" width="1090.19" height="299.951" filterUnits="userSpaceOnUse" color-interpolation-filters="sRGB">
<feFlood flood-opacity="0" result="BackgroundImageFix"/>
<feBlend mode="normal" in="SourceGraphic" in2="BackgroundImageFix" result="shape"/>
<feGaussianBlur stdDeviation="25" result="effect1_foregroundBlur"/>
</filter>
<filter id="filter5_f" x="1080.06" y="682.663" width="1090.19" height="299.951" filterUnits="userSpaceOnUse" color-interpolation-filters="sRGB">
<feFlood flood-opacity="0" result="BackgroundImageFix"/>
<feBlend mode="normal" in="SourceGraphic" in2="BackgroundImageFix" result="shape"/>
<feGaussianBlur stdDeviation="25" result="effect1_foregroundBlur"/>
</filter>
<filter id="filter6_f" x="1844.06" y="440.663" width="1090.19" height="299.951" filterUnits="userSpaceOnUse" color-interpolation-filters="sRGB">
<feFlood flood-opacity="0" result="BackgroundImageFix"/>
<feBlend mode="normal" in="SourceGraphic" in2="BackgroundImageFix" result="shape"/>
<feGaussianBlur stdDeviation="25" result="effect1_foregroundBlur"/>
</filter>
<filter id="filter7_f" x="3796.06" y="339.663" width="1090.19" height="299.951" filterUnits="userSpaceOnUse" color-interpolation-filters="sRGB">
<feFlood flood-opacity="0" result="BackgroundImageFix"/>
<feBlend mode="normal" in="SourceGraphic" in2="BackgroundImageFix" result="shape"/>
<feGaussianBlur stdDeviation="25" result="effect1_foregroundBlur"/>
</filter>
<filter id="filter8_f" x="59.8177" y="947.936" width="347.262" height="246.42" filterUnits="userSpaceOnUse" color-interpolation-filters="sRGB">
<feFlood flood-opacity="0" result="BackgroundImageFix"/>
<feBlend mode="normal" in="SourceGraphic" in2="BackgroundImageFix" result="shape"/>
<feGaussianBlur stdDeviation="25" result="effect1_foregroundBlur"/>
</filter>
<filter id="filter9_f" x="1500.06" y="0.662842" width="1090.19" height="299.951" filterUnits="userSpaceOnUse" color-interpolation-filters="sRGB">
<feFlood flood-opacity="0" result="BackgroundImageFix"/>
<feBlend mode="normal" in="SourceGraphic" in2="BackgroundImageFix" result="shape"/>
<feGaussianBlur stdDeviation="25" result="effect1_foregroundBlur"/>
</filter>
<filter id="filter10_f" x="3820.76" y="978.677" width="768.048" height="206.1" filterUnits="userSpaceOnUse" color-interpolation-filters="sRGB">
<feFlood flood-opacity="0" result="BackgroundImageFix"/>
<feBlend mode="normal" in="SourceGraphic" in2="BackgroundImageFix" result="shape"/>
<feGaussianBlur stdDeviation="25" result="effect1_foregroundBlur"/>
</filter>
<filter id="filter11_f" x="4351.87" y="1062" width="968.06" height="292.18" filterUnits="userSpaceOnUse" color-interpolation-filters="sRGB">
<feFlood flood-opacity="0" result="BackgroundImageFix"/>
<feBlend mode="normal" in="SourceGraphic" in2="BackgroundImageFix" result="shape"/>
<feGaussianBlur stdDeviation="20" result="effect1_foregroundBlur"/>
</filter>
<filter id="filter12_f" x="152" y="245" width="968.06" height="292.18" filterUnits="userSpaceOnUse" color-interpolation-filters="sRGB">
<feFlood flood-opacity="0" result="BackgroundImageFix"/>
<feBlend mode="normal" in="SourceGraphic" in2="BackgroundImageFix" result="shape"/>
<feGaussianBlur stdDeviation="20" result="effect1_foregroundBlur"/>
</filter>
<filter id="filter13_f" x="4886.7" y="630" width="889.394" height="226.883" filterUnits="userSpaceOnUse" color-interpolation-filters="sRGB">
<feFlood flood-opacity="0" result="BackgroundImageFix"/>
<feBlend mode="normal" in="SourceGraphic" in2="BackgroundImageFix" result="shape"/>
<feGaussianBlur stdDeviation="20" result="effect1_foregroundBlur"/>
</filter>
<filter id="filter14_f" x="2231" y="449" width="889.394" height="226.883" filterUnits="userSpaceOnUse" color-interpolation-filters="sRGB">
<feFlood flood-opacity="0" result="BackgroundImageFix"/>
<feBlend mode="normal" in="SourceGraphic" in2="BackgroundImageFix" result="shape"/>
<feGaussianBlur stdDeviation="20" result="effect1_foregroundBlur"/>
</filter>
<filter id="filter15_f" x="6052.61" y="674.642" width="580.771" height="241.906" filterUnits="userSpaceOnUse" color-interpolation-filters="sRGB">
<feFlood flood-opacity="0" result="BackgroundImageFix"/>
<feBlend mode="normal" in="SourceGraphic" in2="BackgroundImageFix" result="shape"/>
<feGaussianBlur stdDeviation="25" result="effect1_foregroundBlur"/>
</filter>
<filter id="filter16_f" x="1804.65" y="898.642" width="580.771" height="241.906" filterUnits="userSpaceOnUse" color-interpolation-filters="sRGB">
<feFlood flood-opacity="0" result="BackgroundImageFix"/>
<feBlend mode="normal" in="SourceGraphic" in2="BackgroundImageFix" result="shape"/>
<feGaussianBlur stdDeviation="25" result="effect1_foregroundBlur"/>
</filter>
<filter id="filter17_f" x="5944.33" y="960.589" width="385.231" height="334.636" filterUnits="userSpaceOnUse" color-interpolation-filters="sRGB">
<feFlood flood-opacity="0" result="BackgroundImageFix"/>
<feBlend mode="normal" in="SourceGraphic" in2="BackgroundImageFix" result="shape"/>
<feGaussianBlur stdDeviation="25" result="effect1_foregroundBlur"/>
</filter>
<filter id="filter18_f" x="692.089" y="958.915" width="385.231" height="334.636" filterUnits="userSpaceOnUse" color-interpolation-filters="sRGB">
<feFlood flood-opacity="0" result="BackgroundImageFix"/>
<feBlend mode="normal" in="SourceGraphic" in2="BackgroundImageFix" result="shape"/>
<feGaussianBlur stdDeviation="25" result="effect1_foregroundBlur"/>
</filter>
<filter id="filter19_f" x="2234.09" y="640.915" width="385.231" height="334.636" filterUnits="userSpaceOnUse" color-interpolation-filters="sRGB">
<feFlood flood-opacity="0" result="BackgroundImageFix"/>
<feBlend mode="normal" in="SourceGraphic" in2="BackgroundImageFix" result="shape"/>
<feGaussianBlur stdDeviation="25" result="effect1_foregroundBlur"/>
</filter>
<filter id="filter20_f" x="6527" y="841.81" width="788.187" height="510.19" filterUnits="userSpaceOnUse" color-interpolation-filters="sRGB">
<feFlood flood-opacity="0" result="BackgroundImageFix"/>
<feBlend mode="normal" in="SourceGraphic" in2="BackgroundImageFix" result="shape"/>
<feGaussianBlur stdDeviation="25" result="effect1_foregroundBlur"/>
</filter>
<filter id="filter21_f" x="6567" y="868" width="788.187" height="510.19" filterUnits="userSpaceOnUse" color-interpolation-filters="sRGB">
<feFlood flood-opacity="0" result="BackgroundImageFix"/>
<feBlend mode="normal" in="SourceGraphic" in2="BackgroundImageFix" result="shape"/>
<feGaussianBlur stdDeviation="25" result="effect1_foregroundBlur"/>
</filter>
<filter id="filter22_f" x="6504" y="916" width="687.204" height="450" filterUnits="userSpaceOnUse" color-interpolation-filters="sRGB">
<feFlood flood-opacity="0" result="BackgroundImageFix"/>
<feBlend mode="normal" in="SourceGraphic" in2="BackgroundImageFix" result="shape"/>
<feGaussianBlur stdDeviation="25" result="effect1_foregroundBlur"/>
</filter>
<filter id="filter23_f" x="3405" y="178" width="1106.64" height="700" filterUnits="userSpaceOnUse" color-interpolation-filters="sRGB">
<feFlood flood-opacity="0" result="BackgroundImageFix"/>
<feBlend mode="normal" in="SourceGraphic" in2="BackgroundImageFix" result="shape"/>
<feGaussianBlur stdDeviation="25" result="effect1_foregroundBlur"/>
</filter>
<filter id="filter24_f" x="3543" y="235" width="771.09" height="500" filterUnits="userSpaceOnUse" color-interpolation-filters="sRGB">
<feFlood flood-opacity="0" result="BackgroundImageFix"/>
<feBlend mode="normal" in="SourceGraphic" in2="BackgroundImageFix" result="shape"/>
<feGaussianBlur stdDeviation="25" result="effect1_foregroundBlur"/>
</filter>
<filter id="filter25_f" x="2221" y="182" width="1106.64" height="700" filterUnits="userSpaceOnUse" color-interpolation-filters="sRGB">
<feFlood flood-opacity="0" result="BackgroundImageFix"/>
<feBlend mode="normal" in="SourceGraphic" in2="BackgroundImageFix" result="shape"/>
<feGaussianBlur stdDeviation="25" result="effect1_foregroundBlur"/>
</filter>
<filter id="filter26_f" x="2261" y="250" width="1106.64" height="700" filterUnits="userSpaceOnUse" color-interpolation-filters="sRGB">
<feFlood flood-opacity="0" result="BackgroundImageFix"/>
<feBlend mode="normal" in="SourceGraphic" in2="BackgroundImageFix" result="shape"/>
<feGaussianBlur stdDeviation="25" result="effect1_foregroundBlur"/>
</filter>
<filter id="filter27_f" x="2239" y="367" width="771.09" height="500" filterUnits="userSpaceOnUse" color-interpolation-filters="sRGB">
<feFlood flood-opacity="0" result="BackgroundImageFix"/>
<feBlend mode="normal" in="SourceGraphic" in2="BackgroundImageFix" result="shape"/>
<feGaussianBlur stdDeviation="25" result="effect1_foregroundBlur"/>
</filter>
<filter id="filter28_f" x="2108" y="865" width="788.187" height="510.19" filterUnits="userSpaceOnUse" color-interpolation-filters="sRGB">
<feFlood flood-opacity="0" result="BackgroundImageFix"/>
<feBlend mode="normal" in="SourceGraphic" in2="BackgroundImageFix" result="shape"/>
<feGaussianBlur stdDeviation="25" result="effect1_foregroundBlur"/>
</filter>
<radialGradient id="paint0_radial" cx="0" cy="0" r="1" gradientUnits="userSpaceOnUse" gradientTransform="translate(3418 987) rotate(-0.238237) scale(962.008 5839.52)">
<stop offset="0.078125" stop-color="#BDF8FB" stop-opacity="0"/>
<stop offset="0.197917" stop-color="#93C7D2" stop-opacity="0.167883"/>
<stop offset="0.791667" stop-color="white"/>
<stop offset="0.9999" stop-color="#B7F3FB"/>
</radialGradient>
<radialGradient id="paint1_radial" cx="0" cy="0" r="1" gradientUnits="userSpaceOnUse" gradientTransform="translate(3406.25 1051.21) rotate(-0.238237) scale(761.771 4624.06)">
<stop offset="0.078125" stop-color="#7C8282" stop-opacity="0"/>
<stop offset="0.197917" stop-color="#889FAC" stop-opacity="0.167883"/>
<stop offset="0.791667" stop-color="#87BCBF"/>
<stop offset="1" stop-color="#EEF4F4"/>
</radialGradient>
<linearGradient id="paint2_linear" x1="4836.19" y1="884.79" x2="5826.25" y2="883.825" gradientUnits="userSpaceOnUse">
<stop stop-color="white"/>
<stop offset="1" stop-color="white" stop-opacity="0"/>
</linearGradient>
<linearGradient id="paint3_linear" x1="50.0976" y1="828.79" x2="1040.16" y2="827.825" gradientUnits="userSpaceOnUse">
<stop stop-color="white"/>
<stop offset="1" stop-color="white" stop-opacity="0"/>
</linearGradient>
<linearGradient id="paint4_linear" x1="1130.1" y1="832.79" x2="2120.16" y2="831.825" gradientUnits="userSpaceOnUse">
<stop stop-color="white"/>
<stop offset="1" stop-color="white" stop-opacity="0"/>
</linearGradient>
<linearGradient id="paint5_linear" x1="1894.1" y1="590.79" x2="2884.16" y2="589.825" gradientUnits="userSpaceOnUse">
<stop stop-color="white"/>
<stop offset="1" stop-color="white" stop-opacity="0"/>
</linearGradient>
<linearGradient id="paint6_linear" x1="4117" y1="374" x2="4659.04" y2="624.904" gradientUnits="userSpaceOnUse">
<stop stop-color="white"/>
<stop offset="1" stop-color="#9EDDD5"/>
</linearGradient>
<linearGradient id="paint7_linear" x1="3846.1" y1="489.79" x2="4836.16" y2="488.825" gradientUnits="userSpaceOnUse">
<stop stop-color="white"/>
<stop offset="1" stop-color="white" stop-opacity="0"/>
</linearGradient>
<linearGradient id="paint8_linear" x1="354.183" y1="1066.88" x2="115.92" y2="1089.18" gradientUnits="userSpaceOnUse">
<stop stop-color="white"/>
<stop offset="1" stop-color="white" stop-opacity="0"/>
</linearGradient>
<linearGradient id="paint9_linear" x1="1550.1" y1="150.79" x2="2540.16" y2="149.825" gradientUnits="userSpaceOnUse">
<stop stop-color="white"/>
<stop offset="1" stop-color="white" stop-opacity="0"/>
</linearGradient>
<linearGradient id="paint10_linear" x1="4533.35" y1="1058.17" x2="3888.43" y2="1208.86" gradientUnits="userSpaceOnUse">
<stop stop-color="white"/>
<stop offset="1" stop-color="white" stop-opacity="0"/>
</linearGradient>
<linearGradient id="paint11_linear" x1="6250.21" y1="1021.97" x2="6048.38" y2="1285.89" gradientUnits="userSpaceOnUse">
<stop stop-color="white"/>
<stop offset="1" stop-color="white" stop-opacity="0"/>
</linearGradient>
<linearGradient id="paint12_linear" x1="997.969" y1="1020.3" x2="796.136" y2="1284.22" gradientUnits="userSpaceOnUse">
<stop stop-color="white"/>
<stop offset="1" stop-color="white" stop-opacity="0"/>
</linearGradient>
<linearGradient id="paint13_linear" x1="2539.97" y1="702.298" x2="2338.14" y2="966.217" gradientUnits="userSpaceOnUse">
<stop stop-color="white"/>
<stop offset="1" stop-color="white" stop-opacity="0"/>
</linearGradient>
<radialGradient id="paint14_radial" cx="0" cy="0" r="1" gradientUnits="userSpaceOnUse" gradientTransform="translate(6961.09 1123.1) rotate(90) scale(205.095 344.093)">
<stop stop-color="#E3FFFD"/>
<stop offset="0.213542" stop-color="white" stop-opacity="0.786458"/>
<stop offset="0.276042" stop-color="white"/>
<stop offset="0.807292" stop-color="#B5FFFB" stop-opacity="0.192708"/>
<stop offset="1" stop-color="white"/>
</radialGradient>
<radialGradient id="paint15_radial" cx="0" cy="0" r="1" gradientUnits="userSpaceOnUse" gradientTransform="translate(6847.6 1141) rotate(90) scale(175 293.602)">
<stop stop-color="#B0C8C6"/>
<stop offset="0.213542" stop-color="#CCD0D0" stop-opacity="0.786458"/>
<stop offset="0.276042" stop-color="#D5D7D7"/>
<stop offset="0.807292" stop-color="#9EE2DE" stop-opacity="0.192708"/>
<stop offset="1" stop-color="#D0D6D5"/>
</radialGradient>
<radialGradient id="paint16_radial" cx="0" cy="0" r="1" gradientUnits="userSpaceOnUse" gradientTransform="translate(3958.32 528) rotate(90) scale(300 503.318)">
<stop stop-color="#DDE9EA"/>
<stop offset="0.255208" stop-color="#8EC0C4" stop-opacity="0.49"/>
<stop offset="0.380208" stop-color="white" stop-opacity="0.49"/>
<stop offset="0.817708" stop-color="#CCFCFF" stop-opacity="0.49"/>
<stop offset="0.890625" stop-color="white" stop-opacity="0.49"/>
<stop offset="1" stop-color="#8BB7BA" stop-opacity="0.49"/>
</radialGradient>
<radialGradient id="paint17_radial" cx="0" cy="0" r="1" gradientUnits="userSpaceOnUse" gradientTransform="translate(3928.55 485) rotate(90) scale(200 335.545)">
<stop stop-color="#C8D8D9"/>
<stop offset="0.255208" stop-color="#759A9C" stop-opacity="0.49"/>
<stop offset="0.380208" stop-color="#CDCDCD" stop-opacity="0.49"/>
<stop offset="0.817708" stop-color="#A5D8DB" stop-opacity="0.49"/>
<stop offset="0.890625" stop-color="#D2D2D2" stop-opacity="0.49"/>
<stop offset="1" stop-color="#7EA4A7" stop-opacity="0.49"/>
</radialGradient>
<radialGradient id="paint18_radial" cx="0" cy="0" r="1" gradientUnits="userSpaceOnUse" gradientTransform="translate(2560 621) rotate(15.0916) scale(553.075 927.908)">
<stop stop-color="#B7FBEB"/>
<stop offset="0.0989583" stop-color="#BDFBF8" stop-opacity="0"/>
<stop offset="1" stop-color="#F2FFFE"/>
</radialGradient>
<radialGradient id="paint19_radial" cx="0" cy="0" r="1" gradientUnits="userSpaceOnUse" gradientTransform="translate(2455 631) rotate(15.0916) scale(368.717 618.605)">
<stop stop-color="#8AA3B1"/>
<stop offset="0.0989583" stop-color="#BDF0FB" stop-opacity="0"/>
<stop offset="1" stop-color="#F2FFFC"/>
</radialGradient>
</defs>
</svg>
