<svg width="56" height="30" viewBox="0 0 56 30" fill="none" xmlns="http://www.w3.org/2000/svg">
<path d="M8.89107 6.0784C8.82423 6.3141 8.77996 6.51559 8.75115 6.66943L8.67315 20.8334C8.67315 20.8335 8.67314 20.8336 8.67314 20.8336C8.66094 21.0482 8.65291 21.3533 8.66904 21.7203C8.70123 22.4526 8.83 23.4401 9.22023 24.4482C9.61125 25.4584 10.2665 26.4929 11.3512 27.3065C12.4367 28.1206 13.9328 28.6988 15.9813 28.8269C20.0858 29.0834 22.6718 27.4108 24.2242 25.6642C24.997 24.7949 25.5113 23.9106 25.8328 23.2436C25.9459 23.0089 26.0354 22.8005 26.104 22.6286C26.2173 22.7587 26.3584 22.914 26.5268 23.0878C27.0304 23.6074 27.7804 24.2934 28.7692 24.9633C30.7482 26.3039 33.6883 27.5822 37.52 27.3268C41.3589 27.0708 43.6822 25.402 45.0422 23.7829C45.7196 22.9765 46.1551 22.1862 46.4218 21.5963C46.5552 21.3012 46.6467 21.0555 46.7052 20.8821C46.7109 20.8651 46.7163 20.8489 46.7214 20.8333C46.7646 20.8337 46.8132 20.8337 46.8668 20.8333C47.1058 20.8313 47.445 20.8192 47.8499 20.7791C48.6576 20.6991 49.7366 20.5067 50.8047 20.0536C51.8739 19.6 52.9425 18.8805 53.7097 17.742C54.4788 16.6007 54.9279 15.064 54.7994 13.0087C54.6714 10.9607 54.0929 9.52085 53.2705 8.52402C52.4481 7.52715 51.4029 6.99901 50.3875 6.73695C49.3749 6.47564 48.385 6.47677 47.6534 6.54109C47.2865 6.57335 46.9816 6.62176 46.7674 6.66237C46.753 6.6651 46.739 6.66779 46.7255 6.67043C46.6796 6.49826 46.6074 6.26156 46.4984 5.9812C46.2705 5.39532 45.8805 4.6154 45.2305 3.83538C43.9219 2.26509 41.5865 0.727435 37.5 0.727435C33.4189 0.727435 30.4797 2.25947 28.5626 3.79317C27.605 4.55922 26.9024 5.32556 26.4382 5.90174C26.2628 6.11951 26.1213 6.31034 26.0128 6.46403C25.9069 6.2966 25.7677 6.08607 25.5957 5.84525C25.1573 5.23155 24.5036 4.41817 23.6413 3.61981C21.9183 2.02444 19.3399 0.469636 15.977 0.728318C12.6284 0.985899 10.7965 2.54026 9.81122 4.05105C9.32223 4.80084 9.04565 5.5333 8.89107 6.0784Z" fill="url(#paint0_radial)" fill-opacity="0.5"/>
<path d="M8.89107 6.0784C8.82423 6.3141 8.77996 6.51559 8.75115 6.66943L8.67315 20.8334C8.67315 20.8335 8.67314 20.8336 8.67314 20.8336C8.66094 21.0482 8.65291 21.3533 8.66904 21.7203C8.70123 22.4526 8.83 23.4401 9.22023 24.4482C9.61125 25.4584 10.2665 26.4929 11.3512 27.3065C12.4367 28.1206 13.9328 28.6988 15.9813 28.8269C20.0858 29.0834 22.6718 27.4108 24.2242 25.6642C24.997 24.7949 25.5113 23.9106 25.8328 23.2436C25.9459 23.0089 26.0354 22.8005 26.104 22.6286C26.2173 22.7587 26.3584 22.914 26.5268 23.0878C27.0304 23.6074 27.7804 24.2934 28.7692 24.9633C30.7482 26.3039 33.6883 27.5822 37.52 27.3268C41.3589 27.0708 43.6822 25.402 45.0422 23.7829C45.7196 22.9765 46.1551 22.1862 46.4218 21.5963C46.5552 21.3012 46.6467 21.0555 46.7052 20.8821C46.7109 20.8651 46.7163 20.8489 46.7214 20.8333C46.7646 20.8337 46.8132 20.8337 46.8668 20.8333C47.1058 20.8313 47.445 20.8192 47.8499 20.7791C48.6576 20.6991 49.7366 20.5067 50.8047 20.0536C51.8739 19.6 52.9425 18.8805 53.7097 17.742C54.4788 16.6007 54.9279 15.064 54.7994 13.0087C54.6714 10.9607 54.0929 9.52085 53.2705 8.52402C52.4481 7.52715 51.4029 6.99901 50.3875 6.73695C49.3749 6.47564 48.385 6.47677 47.6534 6.54109C47.2865 6.57335 46.9816 6.62176 46.7674 6.66237C46.753 6.6651 46.739 6.66779 46.7255 6.67043C46.6796 6.49826 46.6074 6.26156 46.4984 5.9812C46.2705 5.39532 45.8805 4.6154 45.2305 3.83538C43.9219 2.26509 41.5865 0.727435 37.5 0.727435C33.4189 0.727435 30.4797 2.25947 28.5626 3.79317C27.605 4.55922 26.9024 5.32556 26.4382 5.90174C26.2628 6.11951 26.1213 6.31034 26.0128 6.46403C25.9069 6.2966 25.7677 6.08607 25.5957 5.84525C25.1573 5.23155 24.5036 4.41817 23.6413 3.61981C21.9183 2.02444 19.3399 0.469636 15.977 0.728318C12.6284 0.985899 10.7965 2.54026 9.81122 4.05105C9.32223 4.80084 9.04565 5.5333 8.89107 6.0784Z" fill="url(#paint1_linear)"/>
<path d="M8.89107 6.0784C8.82423 6.3141 8.77996 6.51559 8.75115 6.66943L8.67315 20.8334C8.67315 20.8335 8.67314 20.8336 8.67314 20.8336C8.66094 21.0482 8.65291 21.3533 8.66904 21.7203C8.70123 22.4526 8.83 23.4401 9.22023 24.4482C9.61125 25.4584 10.2665 26.4929 11.3512 27.3065C12.4367 28.1206 13.9328 28.6988 15.9813 28.8269C20.0858 29.0834 22.6718 27.4108 24.2242 25.6642C24.997 24.7949 25.5113 23.9106 25.8328 23.2436C25.9459 23.0089 26.0354 22.8005 26.104 22.6286C26.2173 22.7587 26.3584 22.914 26.5268 23.0878C27.0304 23.6074 27.7804 24.2934 28.7692 24.9633C30.7482 26.3039 33.6883 27.5822 37.52 27.3268C41.3589 27.0708 43.6822 25.402 45.0422 23.7829C45.7196 22.9765 46.1551 22.1862 46.4218 21.5963C46.5552 21.3012 46.6467 21.0555 46.7052 20.8821C46.7109 20.8651 46.7163 20.8489 46.7214 20.8333C46.7646 20.8337 46.8132 20.8337 46.8668 20.8333C47.1058 20.8313 47.445 20.8192 47.8499 20.7791C48.6576 20.6991 49.7366 20.5067 50.8047 20.0536C51.8739 19.6 52.9425 18.8805 53.7097 17.742C54.4788 16.6007 54.9279 15.064 54.7994 13.0087C54.6714 10.9607 54.0929 9.52085 53.2705 8.52402C52.4481 7.52715 51.4029 6.99901 50.3875 6.73695C49.3749 6.47564 48.385 6.47677 47.6534 6.54109C47.2865 6.57335 46.9816 6.62176 46.7674 6.66237C46.753 6.6651 46.739 6.66779 46.7255 6.67043C46.6796 6.49826 46.6074 6.26156 46.4984 5.9812C46.2705 5.39532 45.8805 4.6154 45.2305 3.83538C43.9219 2.26509 41.5865 0.727435 37.5 0.727435C33.4189 0.727435 30.4797 2.25947 28.5626 3.79317C27.605 4.55922 26.9024 5.32556 26.4382 5.90174C26.2628 6.11951 26.1213 6.31034 26.0128 6.46403C25.9069 6.2966 25.7677 6.08607 25.5957 5.84525C25.1573 5.23155 24.5036 4.41817 23.6413 3.61981C21.9183 2.02444 19.3399 0.469636 15.977 0.728318C12.6284 0.985899 10.7965 2.54026 9.81122 4.05105C9.32223 4.80084 9.04565 5.5333 8.89107 6.0784Z" stroke="#FFF3E9" stroke-width="0.6"/>
<defs>
<radialGradient id="paint0_radial" cx="0" cy="0" r="1" gradientUnits="userSpaceOnUse" gradientTransform="translate(28 -4) rotate(90.4213) scale(32.5539 63.2353)">
<stop stop-color="#FFD644"/>
<stop offset="1" stop-color="#D7A43F" stop-opacity="0.7"/>
</radialGradient>
<linearGradient id="paint1_linear" x1="25.5" y1="29" x2="24" y2="1" gradientUnits="userSpaceOnUse">
<stop stop-color="#DDA534" stop-opacity="0.5"/>
<stop offset="0.630208" stop-color="white" stop-opacity="0.34"/>
<stop offset="1" stop-color="white" stop-opacity="0.99"/>
</linearGradient>
</defs>
</svg>
